<?xml version="1.0" standalone="no"?>
<!DOCTYPE svg PUBLIC "-//W3C//DTD SVG 1.1//EN" "http://www.w3.org/Graphics/SVG/1.1/DTD/svg11.dtd" >
<svg xmlns="http://www.w3.org/2000/svg">
<metadata>
Created by FontPrep 20130207 at Tue Aug 19 20:00:51 2014
 By Davo
Copyright (c) 2012 by Fontfabric LLC. All rights reserved.
</metadata>
<defs>
<font id="4be36e715dc18fc7682db5421238aaf4" horiz-adv-x='1024' >
  <font-face 
    font-family="Nexa-Book"
    font-weight="400"
    font-stretch="normal"
    units-per-em="2048"
    panose-1="2 0 0 0 0 0 0 0 0 0"
    ascent="1536"
    descent="-512"
    x-height="1012"
    cap-height="1434"
    bbox="-299 -602 2226 2007"
    underline-thickness="102"
    underline-position="-102"
    unicode-range="U+0020-FB02"
  />
<missing-glyph horiz-adv-x="1320" 
d="M76 0v1434h1102v-1434h-1102zM260 913h100q0 105 76 153t182 48q279 0 279 -201q0 -91 -44 -125q-44 -35 -112 -59q-115 -39 -157 -102t-43 -205l100 -2q0 116 24 154t111 67q111 43 148 80q74 68 71 192q0 154 -108 224q-109 69 -265 69t-259 -72t-103 -221zM662 259
q0 45 -34 63t-69 0t-35 -63q0 -44 35 -62t69 0t34 62z" />
    <glyph glyph-name=".notdef" horiz-adv-x="1320" 
d="M76 0v1434h1102v-1434h-1102zM260 913h100q0 105 76 153t182 48q279 0 279 -201q0 -91 -44 -125q-44 -35 -112 -59q-115 -39 -157 -102t-43 -205l100 -2q0 116 24 154t111 67q111 43 148 80q74 68 71 192q0 154 -108 224q-109 69 -265 69t-259 -72t-103 -221zM662 259
q0 45 -34 63t-69 0t-35 -63q0 -44 35 -62t69 0t34 62z" />
    <glyph glyph-name=".null" horiz-adv-x="0" 
 />
    <glyph glyph-name="nonmarkingreturn" horiz-adv-x="681" 
 />
    <glyph glyph-name="space" unicode=" " horiz-adv-x="534" 
 />
    <glyph glyph-name="exclam" unicode="!" horiz-adv-x="518" 
d="M162 90q0 63 50 90t101 0t51 -90t-50 -89q-52 -26 -102 0t-50 89zM186 1434h146v-1121h-146v1121z" />
    <glyph glyph-name="quotedbl" unicode="&#x22;" horiz-adv-x="739" 
d="M461 1438h125v-531h-125v531zM154 1438h127v-531h-127v531z" />
    <glyph glyph-name="numbersign" unicode="#" horiz-adv-x="1388" 
d="M940 985h-373l-139 -536h375zM1311 1098v-117h-238l-135 -528h219v-121h-246l-82 -332h-139l82 332h-364l-82 -332h-140l82 332h-192v121h219l137 528h-203v117h230l82 336h139l-82 -336h365l84 336h139l-84 -336h209z" />
    <glyph glyph-name="dollar" unicode="$" horiz-adv-x="1341" 
d="M748 -213h-132v199q-176 8 -323 82t-217 215l123 63q57 -115 192 -170t289 -55t282 52q68 28 110 84t42 130q0 142 -144 204q-106 45 -241 70t-226 41t-183 60q-92 43 -127 90q-68 89 -71 186q-2 98 26 162q51 116 193 181q112 53 275 69v199h134v-199q333 -27 456 -258
l-119 -64q-51 96 -165 146q-178 77 -380 38q-285 -54 -280 -251q0 -135 179 -195q78 -26 214 -51q135 -25 200 -39t152 -47t135 -73t84 -108t36 -159q-2 -187 -156 -289t-358 -112v-201z" />
    <glyph glyph-name="percent" unicode="%" horiz-adv-x="1542" 
d="M392 1303q-87 1 -136 -53t-49 -128t49 -127t137 -53t136 53q49 53 49 126t-50 127t-136 55zM1149 483q-88 0 -137 -55t-49 -130t50 -131t138 -56t137 54t49 130t-50 132t-138 56zM1149 604q151 0 235 -92t84 -218t-84 -216t-236 -90t-234 90q-83 90 -83 216t83 218
t235 92zM393 1432q150 0 235 -94t85 -219q0 -126 -84 -216t-236 -90q-153 0 -235 90t-82 216q0 125 84 219t233 94zM225 0l928 1434h147l-925 -1434h-150z" />
    <glyph glyph-name="ampersand" unicode="&#x26;" horiz-adv-x="1423" 
d="M1161 676v-291q0 -260 170 -260v-127q-199 -20 -252 176q-51 -86 -180 -139t-233 -53q-258 0 -400 105q-141 105 -141 308q0 119 78 209t194 127q-111 35 -179 123t-68 199q2 180 140 286t372 107q483 0 485 -361h-127q0 244 -363 244q-182 0 -276 -79q-94 -78 -93 -204
t121 -192t261 -66h622v-112h-131zM662 676q-204 0 -300 -84t-96 -208t104 -201t291 -77q188 0 311 124q65 67 64 155v291h-374z" />
    <glyph glyph-name="quotesingle" unicode="'" horiz-adv-x="432" 
d="M154 1440h125v-531h-125v531z" />
    <glyph glyph-name="parenleft" unicode="(" horiz-adv-x="679" 
d="M557 1542l70 -100q-181 -133 -281 -345t-103 -456t94 -457t290 -354l-74 -104q-205 133 -322 357q-117 223 -133 497t103 540q118 266 356 422z" />
    <glyph glyph-name="parenright" unicode=")" horiz-adv-x="675" 
d="M580 639q0 -270 -116 -513t-339 -402l-72 106q188 139 286 348q97 209 97 461q0 253 -93 449t-292 352l72 100q221 -145 339 -388t118 -513z" />
    <glyph glyph-name="asterisk" unicode="*" horiz-adv-x="747" 
d="M569 1032l-90 -65l-108 157l-111 -157l-90 65l121 148l-170 45l33 104l168 -59l-7 174h113l-8 -174l180 57l31 -102l-182 -45z" />
    <glyph glyph-name="plus" unicode="+" horiz-adv-x="1024" 
d="M100 768h344v340h136v-340h344v-131h-344v-348h-136v348h-344v131z" />
    <glyph glyph-name="comma" unicode="," horiz-adv-x="477" 
d="M336 79q0 -30 -11 -65t-36 -95t-41 -105h-103l58 178q-61 18 -62 82q0 35 21 58q36 43 104 31q28 -5 50 -29q20 -24 20 -55z" />
    <glyph glyph-name="hyphen" unicode="-" horiz-adv-x="1017" 
d="M145 528v125h727v-125h-727z" />
    <glyph glyph-name="period" unicode="." horiz-adv-x="473" 
d="M139 78q0 61 49 86q50 25 98 0t48 -86t-48 -86t-98 0q-49 25 -49 86z" />
    <glyph glyph-name="slash" unicode="/" horiz-adv-x="991" 
d="M795 1559h143l-745 -1727h-142z" />
    <glyph glyph-name="zero" unicode="0" horiz-adv-x="1398" 
d="M133 561v311q0 186 84 322t210 198t272 62q147 0 273 -61t210 -197t84 -324v-311q0 -186 -84 -322q-160 -259 -483 -259t-482 259q-84 136 -84 322zM272 874v-315q0 -143 64 -247q121 -198 362 -199q242 0 363 198q63 104 63 248v315q0 142 -63 246t-157 152t-206 48
q-110 1 -204 -46t-158 -152t-64 -248z" />
    <glyph glyph-name="one" unicode="1" horiz-adv-x="831" 
d="M104 0v117h273v1151l-260 -66v119l393 113v-1317h270v-117h-676z" />
    <glyph glyph-name="two" unicode="2" horiz-adv-x="1376" 
d="M281 1044h-142q2 90 37 162q63 130 207 188t302 58q157 0 277 -38t206 -137t85 -231q0 -241 -168 -336q-168 -96 -387 -96q-162 0 -284 -53q-68 -29 -108 -86t-40 -137v-205h979v-133h-1112v336q0 115 48 198q80 139 312 188q93 19 196 19t193 23q90 22 164 90
q75 68 74 172q0 156 -126 228t-290 74q-164 1 -280 -53q-143 -65 -143 -231z" />
    <glyph glyph-name="three" unicode="3" horiz-adv-x="1357" 
d="M686 674h-235v121h225q180 1 291 79t111 187t-102 191q-103 82 -294 81q-96 0 -180 -18q-84 -19 -155 -81t-71 -163h-139q0 288 353 363q89 18 190 18q242 0 384 -108t144 -285q0 -115 -74 -206t-194 -116q129 -27 213 -117t84 -221q0 -193 -151 -305t-418 -112t-427 120
q-56 43 -91 115t-35 162h137q2 -266 432 -266q190 0 303 80q113 81 113 197t-108 200t-306 84z" />
    <glyph glyph-name="four" unicode="4" horiz-adv-x="1323" 
d="M926 444v824l-711 -824h711zM1059 1434v-990h168v-120h-168v-324h-133v324h-854l-25 110l852 1000h160z" />
    <glyph glyph-name="five" unicode="5" horiz-adv-x="1349" 
d="M268 403q0 -286 422 -286q194 0 306 91t112 234q0 142 -95 226t-292 84h-559v682h1007v-131h-872v-420h424q264 0 396 -121t132 -320q0 -198 -148 -326t-392 -128t-399 86q-83 45 -132 129t-49 200h139z" />
    <glyph glyph-name="six" unicode="6" 
d="M736 756q-169 0 -301 -85t-134 -237q0 -111 69 -185q123 -134 362 -134t358 132q68 75 67 185q0 166 -126 245t-295 79zM299 1040v-346q67 94 187 142t238 47q118 0 215 -25t180 -75t132 -140q49 -89 49 -227t-87 -243t-211 -148t-271 -43t-273 44t-213 150t-87 260v604
q0 199 164 308q164 108 396 108t386 -90q156 -90 164 -272h-148q-8 115 -121 174t-284 59q-225 0 -348 -123q-68 -68 -68 -164z" />
    <glyph glyph-name="seven" unicode="7" horiz-adv-x="1150" 
d="M66 1294v140h1046l14 -105l-743 -1329h-162l731 1294h-886z" />
    <glyph glyph-name="eight" unicode="8" horiz-adv-x="1439" 
d="M291 1055q0 -85 74 -147q130 -110 356 -108q226 1 355 108q75 62 75 157q0 143 -125 210t-302 67t-305 -65q-128 -64 -128 -222zM150 1063q0 141 87 234t209 129t273 36t273 -35t211 -129t89 -222t-78 -212t-202 -125q127 -33 216 -129t89 -215q0 -233 -177 -330
q-177 -96 -419 -96t-416 92q-185 101 -183 336q1 121 86 215t212 127q-270 96 -270 324zM346 561q-82 -70 -82 -170t70 -169q130 -128 387 -128q184 0 318 75t137 220q0 100 -81 170q-140 121 -374 121t-375 -119z" />
    <glyph glyph-name="nine" unicode="9" horiz-adv-x="1415" 
d="M258 1006q0 -166 126 -245t295 -79t301 85t134 237q0 111 -68 185q-123 134 -362 134t-358 -132q-68 -75 -68 -185zM1120 397v346q-66 -94 -188 -141t-240 -47q-228 0 -396 99q-181 108 -181 368q0 138 87 243t211 148t271 43t273 -44t213 -150t87 -261v-604
q-1 -199 -167 -309t-394 -108q-325 0 -475 157q-80 84 -86 207h148q8 -115 124 -175t287 -60q228 0 356 123q70 69 70 165z" />
    <glyph glyph-name="colon" unicode=":" horiz-adv-x="485" 
d="M145 687q1 60 49 85t97 0t49 -85t-48 -85t-98 0t-49 85zM145 79q1 60 49 85t97 0t49 -85t-48 -85t-98 0t-49 85z" />
    <glyph glyph-name="semicolon" unicode=";" horiz-adv-x="485" 
d="M338 80q0 -49 -36 -135t-52 -131h-103l58 178q-59 18 -60 82q0 12 5 18q6 52 53 70t91 -8t44 -74zM145 687q1 60 49 85t97 0t49 -85t-48 -85t-98 0t-49 85z" />
    <glyph glyph-name="less" unicode="&#x3c;" horiz-adv-x="749" 
d="M252 649l381 -342l-92 -94l-443 401v68l443 403l86 -96z" />
    <glyph glyph-name="equal" unicode="=" horiz-adv-x="1140" 
d="M154 793v129h833v-129h-833zM154 369v129h833v-129h-833z" />
    <glyph glyph-name="greater" unicode="&#x3e;" horiz-adv-x="749" 
d="M117 305l381 344l-375 344l86 92l442 -403v-68l-442 -401z" />
    <glyph glyph-name="question" unicode="?" horiz-adv-x="1228" 
d="M72 1030q0 215 154 320q155 104 376 104t375 -90q80 -47 126 -132q46 -84 46 -190q0 -202 -106 -287q-100 -81 -214 -114q-133 -45 -172 -102t-39 -220h-139q0 201 66 293t235 148t206 159q18 47 18 123t-36 136t-98 89q-112 54 -268 54q-156 -1 -272 -69t-117 -222h-141
zM459 94q0 63 50 89t100 0t50 -89t-50 -90t-100 0t-50 90z" />
    <glyph glyph-name="at" unicode="@" horiz-adv-x="1835" 
d="M1292 587q0 159 -98 271t-273 113q-173 0 -281 -108q-108 -107 -108 -271t110 -277t280 -113t271 113q99 113 99 272zM942 1278q-314 0 -510 -190q-194 -190 -194 -494q0 -303 191 -483t493 -181q164 0 313 78l59 -96q-164 -100 -372 -100q-362 0 -588 215
q-225 215 -225 567t227 578t598 226t587 -196q216 -197 216 -598q0 -186 -77 -343t-204 -157q-66 0 -113 44t-47 128q-59 -96 -164 -149t-219 -53q-215 0 -365 148t-149 370q-1 222 147 363q148 142 367 143q117 0 223 -56t158 -153l4 158l115 -3v-753q0 -70 49 -70
q41 0 79 56t65 230q8 58 8 97q0 358 -179 516t-493 158z" />
    <glyph glyph-name="A" unicode="A" horiz-adv-x="1515" 
d="M758 1278l-359 -815h717zM1321 0l-147 332h-832l-147 -332h-152l643 1434h143l644 -1434h-152z" />
    <glyph glyph-name="B" unicode="B" horiz-adv-x="1441" 
d="M199 1434h610q207 0 343 -98t136 -296q0 -104 -60 -187t-165 -118q127 -37 198 -135t71 -198q-1 -186 -109 -279q-140 -123 -414 -123h-610v1434zM342 1300v-501h477q141 0 234 60q92 60 92 189q0 128 -94 190t-242 62h-467zM342 668v-533h467q137 0 250 51q59 27 94 79
t35 124q-2 137 -113 208t-256 71h-477z" />
    <glyph glyph-name="C" unicode="C" horiz-adv-x="1452" 
d="M854 1454q150 0 284 -54t224 -161l-88 -88q-174 172 -420 172q-286 0 -444 -179t-158 -438t157 -427t428 -168t447 176l92 -92q-217 -217 -522 -218q-356 0 -550 208t-195 524q-1 201 79 367t253 272t413 106z" />
    <glyph glyph-name="D" unicode="D" horiz-adv-x="1531" 
d="M342 1298v-1165h363q332 0 488 264q89 151 85 316t-64 291t-192 210q-133 84 -317 84h-363zM199 1434h506q176 0 316 -60t226 -160q176 -206 176 -487q0 -282 -170 -497q-84 -106 -226 -168t-322 -62h-506v1434z" />
    <glyph glyph-name="E" unicode="E" horiz-adv-x="1341" 
d="M1227 135v-135h-1028v1434h1009v-136h-866v-514h827v-133h-827v-516h885z" />
    <glyph glyph-name="F" unicode="F" horiz-adv-x="1284" 
d="M342 0h-143v1434h981v-136h-838v-544h807v-136h-807v-618z" />
    <glyph glyph-name="G" unicode="G" horiz-adv-x="1529" 
d="M852 1323q-282 0 -442 -178t-159 -431t158 -424t443 -171q238 0 412 155v363h-469v133h606v-555q-229 -236 -549 -235q-356 0 -550 210t-194 530q0 322 204 530t526 208t540 -215l-86 -92q-84 84 -202 128t-238 44z" />
    <glyph glyph-name="H" unicode="H" horiz-adv-x="1552" 
d="M1354 0h-144v635h-868v-635h-143v1434h143v-664h868v664h144v-1434z" />
    <glyph glyph-name="I" unicode="I" horiz-adv-x="540" 
d="M342 0h-143v1434h143v-1434z" />
    <glyph glyph-name="J" unicode="J" horiz-adv-x="1400" 
d="M549 1434h670v-875q0 -266 -162 -422q-162 -155 -420 -155t-421 156t-163 417h144q1 -199 121 -319t318 -119q198 -1 318 117t121 325v741h-526v134z" />
    <glyph glyph-name="K" unicode="K" horiz-adv-x="1241" 
d="M1178 1434v-11l-699 -678l760 -735v-10h-178l-719 694v-694h-143v1434h143v-646l666 646h170z" />
    <glyph glyph-name="L" unicode="L" horiz-adv-x="1173" 
d="M199 1434h143v-1299h797v-135h-940v1434z" />
    <glyph glyph-name="M" unicode="M" horiz-adv-x="1796" 
d="M1454 0v1223l-534 -787h-41l-537 797v-1233h-143v1434h176l524 -791l518 791h180v-1434h-143z" />
    <glyph glyph-name="N" unicode="N" horiz-adv-x="1550" 
d="M1208 1434h144v-1434h-86l-928 1153l4 -424v-729h-143v1434h90l928 -1164l-9 475v689z" />
    <glyph glyph-name="O" unicode="O" horiz-adv-x="1665" 
d="M834 109q276 0 428 177t152 431t-150 429q-152 175 -430 176t-434 -172q-154 -173 -150 -437q4 -352 261 -517q134 -87 323 -87zM106 715q0 315 196 529t537 213t531 -219t190 -519t-181 -516q-87 -105 -228 -167t-317 -63q-233 0 -403 109q-169 110 -247 274t-78 359z
" />
    <glyph glyph-name="P" unicode="P" horiz-adv-x="1390" 
d="M840 477h-498v-477h-143v1434h641q290 0 428 -248q66 -122 49 -294q-18 -172 -145 -294q-56 -55 -143 -88t-189 -33zM342 1298v-686h498q92 0 165 38t109 98q126 209 0 414q-38 60 -110 98t-164 38h-498z" />
    <glyph glyph-name="Q" unicode="Q" horiz-adv-x="1669" 
d="M842 1321q-272 0 -433 -172t-161 -425t154 -429t432 -176t432 177t150 432t-152 424q-150 169 -422 169zM834 1456q348 0 537 -213t189 -508t-159 -497l178 -175l-98 -102l-181 176q-186 -154 -466 -153q-180 0 -322 60t-229 164q-179 213 -177 519q4 424 326 625
q169 104 402 104z" />
    <glyph glyph-name="R" unicode="R" horiz-adv-x="1449" 
d="M842 1298h-500v-634h492q166 0 252 87t88 228q0 141 -86 230t-246 89zM342 528v-528h-143v1434h643q227 0 350 -130t125 -318q3 -188 -107 -312q-110 -125 -325 -135l489 -539h-186l-475 528h-371z" />
    <glyph glyph-name="S" unicode="S" horiz-adv-x="1351" 
d="M1255 364q0 -90 -52 -175t-139 -129q-160 -81 -370 -82q-208 -1 -370 77t-240 240l125 67q68 -129 198 -188t282 -59t272 51q69 29 109 86t40 133q0 146 -138 207q-106 46 -252 72t-210 40q-181 41 -266 112q-109 92 -109 243q-2 106 48 187q86 139 307 190q91 20 190 20
q372 0 534 -250l-120 -67q-111 178 -412 182q-150 0 -267 -51q-61 -27 -99 -81q-38 -55 -38 -117q1 -104 70 -156q69 -53 209 -83q51 -11 127 -25t176 -35q100 -22 157 -48q56 -26 102 -58t74 -70t45 -91q17 -52 17 -142z" />
    <glyph glyph-name="T" unicode="T" horiz-adv-x="1220" 
d="M539 0v1298h-506v136h1155v-136h-506v-1298h-143z" />
    <glyph glyph-name="U" unicode="U" horiz-adv-x="1503" 
d="M1178 1434h143v-875q0 -279 -160 -426q-161 -147 -407 -147t-409 148t-163 425v875h144v-875q0 -201 122 -321t302 -119q182 -1 305 113t123 327v875z" />
    <glyph glyph-name="V" unicode="V" horiz-adv-x="1478" 
d="M1425 1434l-604 -1438h-159l-611 1438h158l532 -1280l525 1280h159z" />
    <glyph glyph-name="W" unicode="W" horiz-adv-x="2211" 
d="M2148 1434l-508 -1438h-145l-215 616l-174 543l-172 -541l-215 -618h-148l-508 1438h162l418 -1241l418 1241h90l418 -1241l420 1241h159z" />
    <glyph glyph-name="X" unicode="X" horiz-adv-x="1273" 
d="M1217 1434v-4l-486 -697l518 -729v-4h-168l-233 332l-211 315l-223 -330l-226 -317h-163v4l518 729l-486 697v4h160l217 -310l203 -303l211 312l213 301h156z" />
    <glyph glyph-name="Y" unicode="Y" horiz-adv-x="1357" 
d="M1309 1434v-4l-559 -852v-578h-144v578l-551 852v4h166l457 -717l463 717h168z" />
    <glyph glyph-name="Z" unicode="Z" horiz-adv-x="1220" 
d="M125 1300v134h1016v-62l-891 -1233h891v-139h-1096v74l877 1226h-797z" />
    <glyph glyph-name="bracketleft" unicode="[" horiz-adv-x="653" 
d="M580 -348h-398v1808h398v-129h-261v-1554h261v-125z" />
    <glyph glyph-name="backslash" unicode="\" horiz-adv-x="993" 
d="M53 1559h146l743 -1727h-143z" />
    <glyph glyph-name="bracketright" unicode="]" horiz-adv-x="653" 
d="M471 -346h-397v129h258v1550h-258v129h397v-1808z" />
    <glyph glyph-name="asciicircum" unicode="^" horiz-adv-x="1214" 
d="M106 756l-4 8l445 670h117l448 -670l-4 -8h-145l-357 544l-362 -544h-138z" />
    <glyph glyph-name="underscore" unicode="_" horiz-adv-x="1247" 
d="M143 -168v123h961v-123h-961z" />
    <glyph glyph-name="grave" unicode="`" horiz-adv-x="479" 
d="M47 1434h168l152 -254v-9h-129l-191 259v4z" />
    <glyph glyph-name="a" unicode="a" horiz-adv-x="1298" 
d="M616 901q-164 -1 -274 -111t-111 -285q0 -175 111 -286t274 -110q106 0 192 44q86 43 128 113q148 239 0 477q-42 70 -128 114t-192 44zM1010 1012h129v-1012h-127v201q-63 -109 -173 -165t-229 -56q-221 0 -368 145q-148 145 -148 379t148 378t370 144q123 0 233 -56
t165 -159v201z" />
    <glyph glyph-name="b" unicode="b" horiz-adv-x="1300" 
d="M160 1434h137v-623q55 107 164 163t233 56q222 0 366 -139t144 -385t-143 -385t-367 -139q-272 0 -397 213l-8 -195h-129v1434zM686 899q-164 1 -274 -109t-111 -283q0 -173 110 -284q111 -111 275 -111t272 105q108 103 109 289q-1 186 -109 290t-272 103z" />
    <glyph glyph-name="c" unicode="c" horiz-adv-x="1056" 
d="M94 506q0 240 148 380t366 140q217 0 369 -149l-90 -89q-111 109 -273 109t-272 -105q-111 -106 -111 -288t111 -286q110 -104 276 -104t281 115l94 -92q-156 -153 -377 -153q-222 0 -372 141t-150 381z" />
    <glyph glyph-name="d" unicode="d" horiz-adv-x="1300" 
d="M1004 1434h137v-1434h-133l-4 203q-59 -105 -167 -163t-231 -58q-223 0 -366 139t-144 385q0 246 144 385t366 139q125 0 234 -56t164 -163v623zM613 899q-165 0 -273 -103q-108 -102 -107 -288q0 -186 109 -290q108 -104 272 -105q164 1 274 111t110 283t-110 283
q-110 109 -275 109z" />
    <glyph glyph-name="e" unicode="e" horiz-adv-x="1200" 
d="M616 907q-156 0 -258 -90t-122 -252h751q-2 160 -108 251q-107 91 -263 91zM618 113q96 0 194 37t149 102l92 -82q-72 -90 -191 -139t-244 -49q-229 0 -376 143q-148 143 -148 377t146 380q146 148 380 148t380 -148t116 -433h-880q14 -156 122 -246t260 -90z" />
    <glyph glyph-name="f" unicode="f" horiz-adv-x="761" 
d="M408 0h-138v883h-200v118h200v84q0 167 82 263t242 96q117 0 217 -72l-59 -102q-86 51 -156 51q-188 0 -188 -236v-84h323v-118h-323v-883z" />
    <glyph glyph-name="g" unicode="g" horiz-adv-x="1251" 
d="M627 168q173 0 281 108t108 275q0 166 -114 261t-272 95q-159 0 -277 -95q-117 -95 -117 -274t109 -275q110 -95 282 -95zM1153 522q0 -126 -79 -246t-226 -161q299 -80 299 -332q0 -181 -153 -283q-154 -102 -372 -102t-364 113q-145 113 -143 305h137q-2 -135 108 -210
t267 -75t269 63q112 62 112 188t-113 192t-268 67q-238 0 -384 133q-147 132 -147 364t161 365t357 133t312 -82l106 127l94 -77l-108 -130q66 -74 100 -150t35 -202z" />
    <glyph glyph-name="h" unicode="h" horiz-adv-x="1216" 
d="M160 1434h135v-598q115 186 352 190q207 0 315 -124t107 -335v-567h-137v567q0 156 -76 242t-223 86t-241 -100t-95 -250v-545h-137v1434z" />
    <glyph glyph-name="i" unicode="i" horiz-adv-x="456" 
d="M133 1329q0 61 48 86q47 25 97 0t50 -86t-48 -86t-98 0q-49 25 -49 86zM297 1016v-1016h-137v1016h137z" />
    <glyph glyph-name="j" unicode="j" horiz-adv-x="456" 
d="M131 1337q0 61 49 86q50 25 98 0t48 -86t-48 -86t-98 0q-49 25 -49 86zM297 1014v-1155q0 -177 -61 -271t-220 -94q-94 0 -192 57l43 113q71 -37 141 -37t104 34t41 77t7 121v1155h137z" />
    <glyph glyph-name="k" unicode="k" horiz-adv-x="987" 
d="M160 1434h135v-856l442 434h174v-8l-485 -469l545 -527v-8h-176l-500 485v-485h-135v1434z" />
    <glyph glyph-name="l" unicode="l" horiz-adv-x="485" 
d="M174 1434h137v-1434h-137v1434z" />
    <glyph glyph-name="m" unicode="m" horiz-adv-x="1902" 
d="M1028 0h-137v586q0 135 -83 225t-214 90t-214 -90t-83 -225v-586h-137v1012h129l6 -158q90 176 313 176q119 0 217 -57t140 -176q49 115 147 174t217 59q193 0 309 -120t117 -320v-590h-137v590q0 137 -80 224t-211 87t-215 -90t-84 -225v-586z" />
    <glyph glyph-name="n" unicode="n" horiz-adv-x="1245" 
d="M1098 0h-140v567q0 160 -88 246t-237 85t-243 -100t-93 -247v-551h-137v1012h131l4 -170q121 186 352 186q203 0 327 -119t124 -340v-569z" />
    <glyph glyph-name="o" unicode="o" horiz-adv-x="1228" 
d="M614 905q-168 -1 -276 -113t-107 -288q0 -176 108 -284q107 -108 277 -108t276 108q105 108 105 284t-107 289q-108 112 -276 112zM611 1030q227 0 375 -147t148 -379t-146 -376t-372 -144t-374 144t-148 376t146 380q146 146 371 146z" />
    <glyph glyph-name="p" unicode="p" horiz-adv-x="1300" 
d="M295 -483h-135v1495h133l4 -215q59 109 169 170t241 61q219 -6 358 -147t139 -379t-143 -380t-369 -142q-122 0 -230 57t-167 168v-688zM687 113q165 0 273 104q108 105 107 289q0 184 -106 286q-105 102 -273 103q-168 0 -274 -111q-106 -112 -106 -280t106 -280
q108 -112 273 -111z" />
    <glyph glyph-name="q" unicode="q" horiz-adv-x="1300" 
d="M1141 -483h-135v688q-59 -111 -167 -168t-231 -57q-225 0 -368 142q-144 142 -144 380t140 378q140 142 358 148q131 0 241 -61t169 -170l4 215h133v-1495zM613 113q165 -1 273 111t108 281t-107 279q-105 110 -273 111q-168 0 -274 -102q-106 -103 -106 -287t106 -288
q108 -104 273 -105z" />
    <glyph glyph-name="r" unicode="r" horiz-adv-x="856" 
d="M297 846q87 182 335 182q114 0 216 -72l-64 -114q-78 53 -192 52t-205 -91q-90 -90 -90 -228v-575h-137v1012h129z" />
    <glyph glyph-name="s" unicode="s" horiz-adv-x="1021" 
d="M803 278q0 94 -88 131q-69 28 -172 43t-151 25q-126 26 -204 88t-77 174q0 145 120 220q121 75 287 73q231 0 381 -137l-80 -90q-113 102 -299 102q-120 2 -198 -41t-76 -123q0 -55 47 -92t97 -49t124 -23q232 -35 288 -71q97 -61 122 -128q16 -46 15 -126t-63 -150
q-112 -126 -352 -124q-303 0 -448 196l86 94q119 -160 364 -164q109 0 193 39t84 133z" />
    <glyph glyph-name="t" unicode="t" horiz-adv-x="802" 
d="M416 322q0 -211 156 -211q80 0 163 39l43 -115q-104 -49 -194 -49q-307 -4 -305 336v571h-207v117h207v286l137 15v-301h327v-117h-327v-571z" />
    <glyph glyph-name="u" unicode="u" horiz-adv-x="1241" 
d="M145 1012h138v-568q0 -158 89 -244t238 -86q149 1 243 100q93 99 93 247v551h135v-1012h-127l-4 170q-119 -182 -358 -186q-201 0 -324 122t-123 336v570z" />
    <glyph glyph-name="v" unicode="v" horiz-adv-x="1134" 
d="M918 1012h151l-426 -1014h-151l-426 1014h151l350 -862z" />
    <glyph glyph-name="w" unicode="w" horiz-adv-x="1705" 
d="M799 1012h108l287 -862l285 862h151l-356 -1014h-156l-149 408l-115 382l-117 -385l-149 -405h-156l-358 1014h151l287 -862z" />
    <glyph glyph-name="x" unicode="x" horiz-adv-x="1003" 
d="M942 1012v-6l-354 -486l381 -516v-4h-164l-303 424l-303 -424h-164v4l381 516l-355 486v6h164l277 -398l274 398h166z" />
    <glyph glyph-name="y" unicode="y" horiz-adv-x="1114" 
d="M903 1012h152l-641 -1495h-150l213 495l-405 1000h153l328 -850l115 291z" />
    <glyph glyph-name="z" unicode="z" horiz-adv-x="954" 
d="M98 1012h772v-60l-598 -821h600v-131h-809v51l605 836h-570v125z" />
    <glyph glyph-name="braceleft" unicode="{" horiz-adv-x="651" 
d="M231 82v240q0 225 -155 225v106q156 0 155 224v278q0 184 80 258t267 37v-100q-125 20 -169 -22t-44 -175v-276q0 -180 -63 -235q-32 -28 -83 -42q111 -27 135 -143q11 -54 11 -135v-295q0 -131 43 -170t170 -19v-106q-209 -33 -278 47t-69 303z" />
    <glyph glyph-name="bar" unicode="|" horiz-adv-x="503" 
d="M322 1468v-1693h-140v1693h140z" />
    <glyph glyph-name="braceright" unicode="}" horiz-adv-x="651" 
d="M287 16v295q0 183 63 238q33 29 84 41q-106 29 -129 111q-18 66 -18 165v277q0 133 -44 175t-167 21v101q186 35 265 -38t79 -257v-279q0 -225 158 -225v-106q-158 0 -158 -224v-241q0 -222 -68 -302t-276 -49v109q127 -20 169 18t42 170z" />
    <glyph glyph-name="asciitilde" unicode="~" horiz-adv-x="1290" 
d="M1034 741l107 -36q-47 -147 -145 -197t-238 8l-242 123q-90 47 -158 21t-104 -117l-100 41q51 141 162 187q112 46 229 -17l243 -121q189 -82 246 108z" />
    <glyph glyph-name="exclamdown" unicode="&#xa1;" horiz-adv-x="481" 
d="M338 915q0 -63 -50 -90t-102 0q-51 27 -51 90t50 89t102 1q51 -27 51 -90zM168 -428v1122h145v-1122h-145z" />
    <glyph glyph-name="cent" unicode="&#xa2;" horiz-adv-x="1097" 
d="M686 -178h-133v147q-201 25 -329 161t-128 350t127 354t330 165v129h133v-129q176 -23 307 -147l-88 -88q-121 115 -285 115q-164 -1 -276 -107q-113 -106 -113 -290t112 -286q111 -104 273 -104t287 121l90 -98q-131 -129 -307 -148v-145z" />
    <glyph glyph-name="sterling" unicode="&#xa3;" horiz-adv-x="1329" 
d="M365 1024q0 -68 49 -293h512v-119h-486q49 -305 -157 -483h927v-129h-1089v133q135 121 173 235t13 244h-186v119h160q-51 195 -52 293q-1 204 139 314t354 110t343 -91t133 -294h-129q-6 260 -342 260q-164 0 -263 -80t-99 -219z" />
    <glyph glyph-name="currency" unicode="&#xa4;" horiz-adv-x="1234" 
d="M618 245q-138 0 -241 68l-121 -123l-102 101l122 121q-80 108 -78 248t78 249l-122 121l102 103l119 -123q106 70 241 70t242 -70l123 123l100 -103l-120 -119q79 -111 77 -252t-80 -247l123 -121l-100 -101l-125 123q-100 -68 -238 -68zM617 362q139 0 217 88t77 212
q1 124 -77 212t-216 88t-218 -88q-78 -90 -78 -212t78 -210q78 -90 217 -90z" />
    <glyph glyph-name="yen" unicode="&#xa5;" horiz-adv-x="1378" 
d="M1071 444v-112h-313v-332h-144v332h-321v112h321v123h-321v113h254l-484 750v4h166l457 -721l463 721h168v-4l-492 -750h246v-113h-313v-123h313z" />
    <glyph glyph-name="brokenbar" unicode="&#xa6;" horiz-adv-x="497" 
d="M182 565h133v-747h-133v747zM315 700h-133v748h133v-748z" />
    <glyph glyph-name="section" unicode="&#xa7;" horiz-adv-x="1148" 
d="M498 556q218 -27 328 51q62 45 60 109t-64 109t-151 59q-220 33 -328 -49q-60 -45 -59 -113t63 -112t151 -54zM580 90q114 0 206 40t97 129t-97 123q-80 27 -215 44q-426 45 -426 285q-1 73 51 139t138 94q-184 59 -184 230q2 145 132 218t304 70q256 0 397 -139l-88 -84
q-121 100 -311 100q-123 2 -210 -42t-86 -125t104 -119q79 -28 170 -40q274 -34 368 -103q40 -30 68 -80t24 -113q-6 -174 -201 -221q209 -61 201 -240q-5 -217 -299 -279q-71 -14 -181 -14q-110 -1 -234 51t-191 148l96 90q125 -162 367 -162z" />
    <glyph glyph-name="dieresis" unicode="&#xa8;" horiz-adv-x="931" 
d="M586 1376q0 55 45 79t90 0t45 -79t-45 -79t-90 0t-45 79zM129 1376q0 55 45 79t90 0t45 -79t-45 -79t-90 0t-45 79z" />
    <glyph glyph-name="copyright" unicode="&#xa9;" horiz-adv-x="1708" 
d="M244 716q0 -270 165 -450t447 -180t444 178t162 452t-162 452q-162 180 -444 180t-448 -180q-164 -180 -164 -452zM878 319q-169 0 -285 113t-116 287t116 287q116 112 287 112t285 -119l-86 -86q-87 82 -201 82t-195 -79q-81 -80 -81 -198t81 -196t197 -78t199 84
l88 -88q-120 -121 -289 -121zM855 1462q343 0 542 -214t199 -532t-199 -534q-199 -215 -542 -215t-543 215q-200 216 -200 534t200 532t543 214z" />
    <glyph glyph-name="ordfeminine" unicode="&#xaa;" horiz-adv-x="1015" 
d="M852 633v-125h-670v125h670zM483 1333q-91 0 -155 -63q-64 -64 -64 -164t65 -165t155 -65t148 48q103 84 71 248q-13 67 -71 114q-59 47 -149 47zM727 1436h115v-664h-113l-2 121q-41 -63 -109 -98t-141 -35q-145 0 -241 93t-96 252t96 250q98 91 243 91q73 0 141 -34
t107 -95v119z" />
    <glyph glyph-name="guillemotleft" unicode="&#xab;" horiz-adv-x="890" 
d="M788 1057v-6l-278 -443l278 -452h-147l-283 452l283 449h147zM526 1057v-6l-278 -443q212 -329 278 -452h-145l-285 452l285 449h145z" />
    <glyph glyph-name="logicalnot" unicode="&#xac;" horiz-adv-x="1046" 
d="M889 752v-406h-131v277h-604v129h735z" />
    <glyph glyph-name="uni00AD" unicode="&#xad;" horiz-adv-x="0" 
 />
    <glyph glyph-name="registered" unicode="&#xae;" horiz-adv-x="1703" 
d="M690 999v-278h230q92 0 131 70q39 69 2 139t-129 69h-234zM1210 334h-129l-237 280h-154v-280h-117v776h351q118 0 190 -70t78 -156t-50 -166q-56 -79 -163 -93l231 -267v-24zM246 715q0 -275 162 -453t444 -178t446 179q162 179 162 451t-163 452t-445 180t-444 -178
t-162 -453zM853 1462q343 0 541 -215t198 -532t-198 -533q-198 -215 -541 -215t-542 215q-199 214 -199 532t199 533t542 215z" />
    <glyph glyph-name="macron" unicode="&#xaf;" horiz-adv-x="833" 
d="M72 1321v117h665v-117h-665z" />
    <glyph glyph-name="degree" unicode="&#xb0;" horiz-adv-x="663" 
d="M326 1483q92 0 149 -44q103 -79 71 -232q-12 -62 -70 -106t-154 -44q-96 1 -154 67q-59 66 -57 146q3 80 63 146t152 67zM336 1391q-76 -1 -109 -61t-2 -122t109 -61q78 0 108 61t0 122t-106 61z" />
    <glyph glyph-name="plusminus" unicode="&#xb1;" horiz-adv-x="1083" 
d="M164 88v123h758v-123h-758zM152 698v123h325v328h127v-328h326v-123h-326v-336h-127v336h-325z" />
    <glyph glyph-name="twosuperior" unicode="&#xb2;" horiz-adv-x="741" 
d="M207 1384h-115q0 119 80 170q80 52 201 52t201 -52t81 -181q0 -128 -93 -176q-69 -36 -147 -44q-77 -8 -84 -9t-39 -5q-32 -3 -40 -11t-30 -23t-23 -75v-55h448v-115h-559v172q0 207 279 221q172 8 172 127q0 127 -166 127t-166 -123z" />
    <glyph glyph-name="threesuperior" unicode="&#xb3;" horiz-adv-x="741" 
d="M371 1192h-115v100h106q162 0 164 107q0 41 -43 75t-113 34q-171 -1 -175 -119h-107q0 111 80 163t196 54q116 0 196 -54q81 -54 81 -153q0 -53 -31 -99t-82 -59q58 -16 94 -63t35 -97q0 -123 -86 -176t-209 -53q-122 0 -202 53t-82 170h115q3 -115 173 -115t171 121
q0 41 -41 76t-125 35z" />
    <glyph glyph-name="acute" unicode="&#xb4;" horiz-adv-x="458" 
d="M375 1434v-4l-193 -259h-125v9l154 254h164z" />
    <glyph glyph-name="mu" unicode="&#xb5;" horiz-adv-x="1234" 
d="M1112 0h-121l-12 156q-47 -88 -143 -133t-202 -43t-195 45t-126 131v-615h-137v1469h139v-574q1 -150 99 -238t231 -92q133 -2 231 92t97 267v545h139v-1010z" />
    <glyph glyph-name="mu" unicode="&#x3bc;" horiz-adv-x="1234" 
d="M1112 0h-121l-12 156q-47 -88 -143 -133t-202 -43t-195 45t-126 131v-615h-137v1469h139v-574q1 -150 99 -238t231 -92q133 -2 231 92t97 267v545h139v-1010z" />
    <glyph glyph-name="paragraph" unicode="&#xb6;" horiz-adv-x="1632" 
d="M705 1300v-1740h-144v829q-237 6 -367 160q-130 153 -127 363t140 365t379 155h977v-132h-211v-1740h-140v1740h-507z" />
    <glyph glyph-name="periodcentered" unicode="&#xb7;" horiz-adv-x="489" 
d="M145 586q1 61 51 87t99 0t49 -87t-49 -87t-99 0t-51 87z" />
    <glyph glyph-name="cedilla" unicode="&#xb8;" horiz-adv-x="606" 
d="M51 -324l70 66q49 -74 150 -76t122 72q18 61 -38 97t-150 7l-23 21l47 182h101l-31 -111q121 2 173 -64t32 -148t-85 -122t-145 -40q-160 3 -223 116z" />
    <glyph glyph-name="onesuperior" unicode="&#xb9;" horiz-adv-x="522" 
d="M74 858v103h139v497l-111 -26v104l226 55v-630h141v-103h-395z" />
    <glyph glyph-name="ordmasculine" unicode="&#xba;" horiz-adv-x="972" 
d="M487 877q94 0 157 63q62 62 62 164t-62 166t-156 63q-94 0 -156 -63q-62 -62 -62 -164t62 -166t155 -63zM487 760q-147 0 -245 93t-98 252t98 250t245 91t247 -91t100 -250t-100 -252t-247 -93zM788 635v-119h-610v119h610z" />
    <glyph glyph-name="guillemotright" unicode="&#xbb;" horiz-adv-x="886" 
d="M104 1061h148l283 -451l-283 -450h-148l279 450l-279 443v8zM358 1061h146l284 -451l-284 -450h-146l279 450l-279 443v8z" />
    <glyph glyph-name="onequarter" unicode="&#xbc;" horiz-adv-x="1501" 
d="M100 705v102h129v502l-110 -25v100l225 54v-631h135v-102h-379zM420 -4h-135l768 1446h137zM1229 262v340l-268 -340h268zM1341 735v-473h89v-108h-89v-152h-112v152h-393l-9 96l381 485h133z" />
    <glyph glyph-name="onehalf" unicode="&#xbd;" horiz-adv-x="1611" 
d="M1071 524h-115q0 119 80 172q80 54 200 54t202 -54t82 -176q0 -211 -279 -237q-43 -4 -55 -5q-65 -5 -92 -32t-27 -76v-55h444v-115h-559v172q0 203 279 217q172 8 172 133t-166 125t-166 -123zM100 707v102h127v498l-110 -27v104l229 56v-631h133v-102h-379zM418 -4
h-135l768 1446h137z" />
    <glyph glyph-name="threequarters" unicode="&#xbe;" horiz-adv-x="1579" 
d="M520 -6h-131l768 1448h133zM373 1055h-111v98h103q162 0 161 102q0 41 -42 74t-111 33t-119 -27t-51 -90h-105q0 105 78 159t191 54t193 -52t79 -151q0 -55 -31 -97t-80 -56q58 -14 92 -60t33 -96q0 -119 -84 -172q-83 -53 -201 -53t-198 53t-82 166h117q4 -113 169 -113
t165 119q0 39 -41 74t-125 35zM1305 260v340l-269 -340h269zM1417 733v-473h90v-108h-90v-152h-112v152h-394l-8 96l373 485h141z" />
    <glyph glyph-name="questiondown" unicode="&#xbf;" horiz-adv-x="1191" 
d="M610 -307q160 0 268 80t109 221h139q0 -205 -145 -319q-145 -113 -374 -113t-383 110t-154 316q6 129 61 211q55 81 130 117t148 64q173 66 175 208l6 121l143 -2q0 -207 -61 -299t-228 -148q-106 -37 -166 -97t-61 -175q0 -147 116 -221q117 -74 277 -74zM758 918
q0 -51 -51 -77t-102 1q-50 27 -50 78q0 94 71 108q30 6 60 0q72 -14 72 -110z" />
    <glyph glyph-name="Agrave" unicode="&#xc0;" horiz-adv-x="1515" 
d="M500 1845h168l151 -254v-8h-129l-190 258v4zM758 1278l-359 -815h717zM1321 0l-147 332h-832l-147 -332h-152l643 1434h143l644 -1434h-152z" />
    <glyph glyph-name="Aacute" unicode="&#xc1;" horiz-adv-x="1515" 
d="M1008 1845v-4l-193 -258h-125v8l154 254h164zM399 463h717l-358 815zM1174 332h-832l-147 -332h-152l643 1434h143l644 -1434h-152z" />
    <glyph glyph-name="Acircumflex" unicode="&#xc2;" horiz-adv-x="1515" 
d="M1098 1569h-146l-196 178l-197 -178h-145v14l295 272h96l293 -272v-14zM399 463h717l-358 815zM1174 332h-832l-147 -332h-152l643 1434h143l644 -1434h-152z" />
    <glyph glyph-name="Atilde" unicode="&#xc3;" horiz-adv-x="1515" 
d="M575 1616l-92 37q15 79 71 117t130 24q22 -4 88 -37t108 -30t62 65l92 -37q-16 -84 -71 -120t-125 -21q-20 6 -78 33t-93 32q-69 12 -92 -63zM758 1278l-359 -815h717zM1321 0l-147 332h-832l-147 -332h-152l643 1434h143l644 -1434h-152z" />
    <glyph glyph-name="Adieresis" unicode="&#xc4;" horiz-adv-x="1515" 
d="M899 1673q0 55 45 79t90 0t45 -79t-45 -79t-90 0t-45 79zM442 1673q0 55 45 79t91 0t45 -79q0 -55 -45 -79t-91 0q-45 24 -45 79zM399 463h717l-358 815zM1174 332h-832l-147 -332h-152l643 1434h143l644 -1434h-152z" />
    <glyph glyph-name="Aring" unicode="&#xc5;" horiz-adv-x="1536" 
d="M769 1735q-77 -1 -107 -59t0 -117t108 -59t110 58q32 60 -1 118t-110 59zM408 471h718l-188 430l-170 412l-174 -418zM541 1618q0 98 67 155q68 56 162 56t164 -56q70 -57 70 -143q0 -166 -148 -211l637 -1419h-158l-151 338h-834l-149 -338h-158l637 1421
q-139 45 -139 197z" />
    <glyph glyph-name="AE" unicode="&#xc6;" horiz-adv-x="1871" 
d="M911 588v342l4 356h-6l-411 -698h413zM1761 137v-137h-850v453h-497l-271 -453h-172l881 1434h887v-134h-688v-512h655v-133h-655v-518h710z" />
    <glyph glyph-name="Ccedilla" unicode="&#xc7;" horiz-adv-x="1454" 
d="M856 1454q150 0 284 -54t224 -161l-88 -88q-176 172 -420 172q-286 0 -444 -179t-158 -438t157 -427t428 -168t447 176l92 -92q-213 -213 -514 -218l-26 -98q125 3 178 -63t33 -149t-87 -123t-151 -40q-165 4 -231 117l71 66q53 -74 157 -76t126 72q20 59 -38 96t-157 8
l-24 20l47 175q-313 30 -481 232t-170 495q-1 201 79 367t253 272t413 106z" />
    <glyph glyph-name="Egrave" unicode="&#xc8;" horiz-adv-x="1341" 
d="M524 1851h168l152 -254v-8h-129l-191 258v4zM1227 135v-135h-1028v1434h1009v-136h-866v-514h827v-133h-827v-516h885z" />
    <glyph glyph-name="Eacute" unicode="&#xc9;" horiz-adv-x="1341" 
d="M956 1845v-4l-192 -258h-125v8l154 254h163zM1227 0h-1028v1434h1009v-136h-866v-514h827v-133h-827v-516h885v-135z" />
    <glyph glyph-name="Ecircumflex" unicode="&#xca;" horiz-adv-x="1341" 
d="M1055 1591h-144l-194 176l-195 -176h-141v15l289 268h96l289 -268v-15zM1227 0h-1028v1434h1009v-136h-866v-514h827v-133h-827v-516h885v-135z" />
    <glyph glyph-name="Edieresis" unicode="&#xcb;" horiz-adv-x="1341" 
d="M883 1688q0 54 45 78t90 0t45 -78t-45 -79q-45 -24 -90 0t-45 79zM426 1688q0 54 45 78t90 0t45 -78t-45 -79q-45 -24 -90 0t-45 79zM1227 0h-1028v1434h1009v-136h-866v-514h827v-133h-827v-516h885v-135z" />
    <glyph glyph-name="Igrave" unicode="&#xcc;" horiz-adv-x="540" 
d="M57 1843h152l137 -254v-6h-117l-172 256v4zM342 0h-143v1434h143v-1434z" />
    <glyph glyph-name="Iacute" unicode="&#xcd;" horiz-adv-x="540" 
d="M479 1843v-4l-172 -258h-112v8l137 254h147zM199 0v1434h143v-1434h-143z" />
    <glyph glyph-name="Icircumflex" unicode="&#xce;" horiz-adv-x="540" 
d="M563 1561h-131l-176 176l-176 -176h-131v14l264 270h86l264 -270v-14zM199 0v1434h143v-1434h-143z" />
    <glyph glyph-name="Idieresis" unicode="&#xcf;" horiz-adv-x="540" 
d="M199 0v1434h143v-1434h-143zM27 1665q0 53 42 75t85 0t43 -75t-43 -75t-85 0t-42 75zM338 1665q0 53 42 75t85 0t43 -75t-43 -75t-85 0t-42 75z" />
    <glyph glyph-name="Eth" unicode="&#xd0;" horiz-adv-x="1544" 
d="M354 639v-506h363q336 0 488 264q89 151 85 316t-63 291t-193 210t-317 84h-363v-534h353v-125h-353zM59 639v125h152v670h506q176 0 316 -60q141 -60 227 -160q176 -205 176 -487t-170 -497q-84 -106 -226 -168t-323 -62h-506v639h-152z" />
    <glyph glyph-name="Ntilde" unicode="&#xd1;" horiz-adv-x="1550" 
d="M594 1595l-92 37q16 80 71 118t129 24q23 -4 89 -37q65 -33 107 -30t63 65l92 -37q-15 -84 -71 -120t-126 -22q-20 6 -76 33t-93 33q-70 12 -93 -64zM1208 1434h144v-1434h-86l-928 1153l4 -424v-729h-143v1434h90l928 -1164l-9 475v689z" />
    <glyph glyph-name="Ograve" unicode="&#xd2;" horiz-adv-x="1665" 
d="M608 1855h168l152 -253v-9h-129l-191 258v4zM834 109q276 0 428 177t152 431t-150 429q-152 175 -430 176t-434 -172q-154 -173 -150 -437q4 -352 261 -517q134 -87 323 -87zM106 715q0 315 196 529t537 213t531 -219t190 -519t-181 -516q-87 -105 -228 -167t-317 -63
q-233 0 -403 109q-169 110 -247 274t-78 359z" />
    <glyph glyph-name="Oacute" unicode="&#xd3;" horiz-adv-x="1665" 
d="M1075 1855v-4l-192 -258h-125v9l153 253h164zM834 109q276 0 428 177t152 431t-150 429q-152 175 -430 176t-434 -172q-154 -173 -150 -437q4 -352 261 -517q134 -87 323 -87zM106 715q0 315 196 529t537 213t531 -219t190 -519t-181 -516q-87 -105 -228 -167t-317 -63
q-233 0 -403 109q-169 110 -247 274t-78 359z" />
    <glyph glyph-name="Ocircumflex" unicode="&#xd4;" horiz-adv-x="1665" 
d="M1196 1599h-145l-197 179l-197 -179h-145v15l295 272h96l293 -272v-15zM834 109q276 0 428 177t152 431t-150 429q-152 175 -430 176t-434 -172q-154 -173 -150 -437q4 -352 261 -517q134 -87 323 -87zM106 715q0 315 196 529t537 213t531 -219t190 -519t-181 -516
q-87 -105 -228 -167t-317 -63q-233 0 -403 109q-169 110 -247 274t-78 359z" />
    <glyph glyph-name="Otilde" unicode="&#xd5;" horiz-adv-x="1665" 
d="M674 1642l-92 37q16 80 71 118t129 24q22 -4 88 -37t108 -30t62 65l93 -37q-15 -84 -71 -120t-126 -22q-20 6 -76 33t-93 33q-70 12 -93 -64zM834 109q276 0 428 177t152 431t-150 429q-152 175 -430 176t-434 -172q-154 -173 -150 -437q4 -352 261 -517q134 -87 323 -87
zM106 715q0 315 196 529t537 213t531 -219t190 -519t-181 -516q-87 -105 -228 -167t-317 -63q-233 0 -403 109q-169 110 -247 274t-78 359z" />
    <glyph glyph-name="Odieresis" unicode="&#xd6;" horiz-adv-x="1665" 
d="M981 1671q0 55 45 79t90 0t45 -79t-45 -79t-90 0t-45 79zM524 1671q0 55 45 79t90 0t45 -79t-44 -79q-46 -24 -91 0t-45 79zM834 109q276 0 428 177t152 431t-150 429q-152 175 -430 176t-434 -172q-154 -173 -150 -437q4 -352 261 -517q134 -87 323 -87zM106 715
q0 315 196 529t537 213t531 -219t190 -519t-181 -516q-87 -105 -228 -167t-317 -63q-233 0 -403 109q-169 110 -247 274t-78 359z" />
    <glyph glyph-name="multiply" unicode="&#xd7;" horiz-adv-x="935" 
d="M229 985l238 -240l240 242l81 -86l-241 -242l252 -247l-86 -84l-252 247l-244 -245l-80 86l246 246l-242 235z" />
    <glyph glyph-name="Oslash" unicode="&#xd8;" horiz-adv-x="1665" 
d="M834 1319q-279 0 -431 -176t-149 -430q0 -150 61 -283t177 -213l600 1049q-119 53 -258 53zM834 113q276 0 427 177t152 423q0 313 -211 485l-602 -1044q105 -41 234 -41zM808 1458q208 0 355 -72l101 175h147l-137 -238q139 -102 212 -264q73 -161 73 -325
q-1 -164 -47 -296q-101 -286 -361 -402q-141 -62 -313 -62t-310 55l-108 -187h-148l144 248q-152 98 -231 265t-79 363t78 360t247 273q169 107 377 107z" />
    <glyph glyph-name="Ugrave" unicode="&#xd9;" horiz-adv-x="1503" 
d="M532 1841h168l152 -254v-8h-129l-191 258v4zM1178 1434h143v-875q0 -279 -160 -426q-161 -147 -407 -147t-409 148t-163 425v875h144v-875q0 -201 122 -321t302 -119q182 -1 305 113t123 327v875z" />
    <glyph glyph-name="Uacute" unicode="&#xda;" horiz-adv-x="1503" 
d="M973 1839v-4l-193 -258h-125v8l154 254h164zM1321 1434v-875q0 -279 -160 -426q-161 -147 -407 -147t-409 148t-163 425v875h144v-875q0 -201 122 -321t302 -119q182 -1 305 113t123 327v875h143z" />
    <glyph glyph-name="Ucircumflex" unicode="&#xdb;" horiz-adv-x="1503" 
d="M1098 1581h-146l-196 178l-197 -178h-145v14l295 273h96l293 -273v-14zM1321 1434v-875q0 -279 -160 -426q-161 -147 -407 -147t-409 148t-163 425v875h144v-875q0 -201 122 -321t302 -119q182 -1 305 113t123 327v875h143z" />
    <glyph glyph-name="Udieresis" unicode="&#xdc;" horiz-adv-x="1503" 
d="M895 1665q0 55 45 79t90 0t45 -79t-45 -79t-90 0t-45 79zM438 1665q0 55 45 79t90 0t45 -79t-45 -79t-90 0t-45 79zM1321 1434v-875q0 -279 -160 -426q-161 -147 -407 -147t-409 148t-163 425v875h144v-875q0 -201 122 -321t302 -119q182 -1 305 113t123 327v875h143z
" />
    <glyph glyph-name="Yacute" unicode="&#xdd;" horiz-adv-x="1357" 
d="M881 1843v-4l-193 -258h-125v8l154 254h164zM1309 1434v-4l-559 -852v-578h-144v578l-551 852v4h166l457 -717l463 717h168z" />
    <glyph glyph-name="Thorn" unicode="&#xde;" horiz-adv-x="1396" 
d="M346 1049v-672h494q106 0 184 50q149 96 148 286q-1 191 -148 285q-78 50 -184 51h-494zM199 0v1434h145v-248h496q117 0 211 -41q170 -74 240 -257q32 -85 32 -174t-32 -174q-69 -184 -240 -257q-94 -41 -211 -41h-494v-242h-147z" />
    <glyph glyph-name="germandbls" unicode="&#xdf;" horiz-adv-x="1239" 
d="M1008 387q0 94 -35 163q-87 171 -377 171h-154v123h146q78 0 144 17t123 73q56 56 56 145q0 139 -88 195t-213 57q-309 0 -309 -264v-1067h-141v1067q0 201 128 295t322 94t316 -94q123 -94 123 -283q-1 -104 -59 -183t-163 -103q164 -35 241 -141t77 -256t-65 -250
t-169 -138q-215 -81 -471 10v129q221 -96 395 -26q173 70 173 266z" />
    <glyph glyph-name="agrave" unicode="&#xe0;" horiz-adv-x="1298" 
d="M422 1448h168l151 -254v-8h-129l-190 258v4zM616 901q-164 -1 -274 -111t-111 -285q0 -175 111 -286t274 -110q106 0 192 44q86 43 128 113q148 239 0 477q-42 70 -128 114t-192 44zM1010 1012h129v-1012h-127v201q-63 -109 -173 -165t-229 -56q-221 0 -368 145
q-148 145 -148 379t148 378t370 144q123 0 233 -56t165 -159v201z" />
    <glyph glyph-name="aacute" unicode="&#xe1;" horiz-adv-x="1298" 
d="M870 1444v-4l-192 -258h-125v8l154 254h163zM616 901q-164 -1 -274 -111t-111 -285q0 -175 111 -286t274 -110q106 0 192 44q86 43 128 113q148 239 0 477q-42 70 -128 114t-192 44zM1010 1012h129v-1012h-127v201q-63 -109 -173 -165t-229 -56q-221 0 -368 145
q-148 145 -148 379t148 378t370 144q123 0 233 -56t165 -159v201z" />
    <glyph glyph-name="acircumflex" unicode="&#xe2;" horiz-adv-x="1298" 
d="M1016 1165h-142l-192 174l-193 -174h-143v15l289 266h94l287 -266v-15zM616 901q-164 -1 -274 -111t-111 -285q0 -175 111 -286t274 -110q106 0 192 44q86 43 128 113q148 239 0 477q-42 70 -128 114t-192 44zM1010 1012h129v-1012h-127v201q-63 -109 -173 -165t-229 -56
q-221 0 -368 145q-148 145 -148 379t148 378t370 144q123 0 233 -56t165 -159v201z" />
    <glyph glyph-name="atilde" unicode="&#xe3;" horiz-adv-x="1298" 
d="M475 1245l-92 37q15 80 71 118t130 23q22 -4 88 -37q66 -34 108 -30t62 65l92 -37q-16 -84 -72 -120t-125 -21q-20 6 -73 31t-93 33q-72 15 -96 -62zM616 901q-164 -1 -274 -111t-111 -285q0 -175 111 -286t274 -110q106 0 192 44q86 43 128 113q148 239 0 477
q-42 70 -128 114t-192 44zM1010 1012h129v-1012h-127v201q-63 -109 -173 -165t-229 -56q-221 0 -368 145q-148 145 -148 379t148 378t370 144q123 0 233 -56t165 -159v201z" />
    <glyph glyph-name="adieresis" unicode="&#xe4;" horiz-adv-x="1298" 
d="M811 1339q0 55 45 79t90 0t45 -79t-45 -79t-90 0t-45 79zM354 1339q0 55 45 79t90 0t45 -79t-44 -79q-46 -24 -91 0t-45 79zM616 901q-164 -1 -274 -111t-111 -285q0 -175 111 -286t274 -110q106 0 192 44q86 43 128 113q148 239 0 477q-42 70 -128 114t-192 44z
M1010 1012h129v-1012h-127v201q-63 -109 -173 -165t-229 -56q-221 0 -368 145q-148 145 -148 379t148 378t370 144q123 0 233 -56t165 -159v201z" />
    <glyph glyph-name="aring" unicode="&#xe5;" horiz-adv-x="1298" 
d="M638 1444q-64 0 -94 -50t0 -102t94 -51q64 0 97 32q33 31 32 69t-33 70t-96 32zM428 1341q0 87 65 137t155 50t155 -49t65 -137t-63 -138q-63 -51 -159 -51t-158 50q-60 50 -60 138zM616 901q-164 -1 -274 -111t-111 -285q0 -175 111 -286t274 -110q106 0 192 44
q86 43 128 113q148 239 0 477q-42 70 -128 114t-192 44zM1010 1012h129v-1012h-127v201q-63 -109 -173 -165t-229 -56q-221 0 -368 145q-148 145 -148 379t148 378t370 144q123 0 233 -56t165 -159v201z" />
    <glyph glyph-name="ae" unicode="&#xe6;" horiz-adv-x="2093" 
d="M1518 907q-158 0 -267 -91t-127 -251h756q-4 164 -104 253t-258 89zM616 899q-164 1 -274 -109t-111 -285q0 -175 111 -285t274 -109q109 0 194 43q85 42 129 112q103 162 65 323q-45 192 -194 267q-85 43 -194 43zM1511 113q97 0 193 37t147 102l95 -82
q-72 -90 -192 -139t-245 -49q-268 0 -395 204l-2 -186h-108v199q-64 -109 -170 -164t-226 -55q-219 0 -366 145q-148 145 -148 379t148 378t368 144q123 0 231 -55t165 -160l2 201h110v-193q133 211 395 211q222 0 371 -143q72 -69 106 -183t17 -255h-883q14 -154 123 -245
t264 -91z" />
    <glyph glyph-name="ccedilla" unicode="&#xe7;" horiz-adv-x="1062" 
d="M96 520q0 226 148 366t368 140q218 0 371 -152l-90 -88q-115 111 -277 111t-272 -105q-111 -106 -111 -288t111 -286t278 -105q167 0 281 114l92 -90q-154 -154 -370 -153l-23 -93q119 1 167 -63t30 -146t-84 -120t-148 -37q-153 0 -221 115l70 63q51 -70 137 -74
q113 -8 137 70q18 59 -37 96t-151 10l-25 19l43 170q-186 29 -305 165q-119 135 -119 361z" />
    <glyph glyph-name="egrave" unicode="&#xe8;" horiz-adv-x="1200" 
d="M410 1434h168l151 -254v-9h-129l-190 259v4zM616 907q-156 0 -258 -90t-122 -252h751q-2 160 -108 251q-107 91 -263 91zM618 113q96 0 194 37t149 102l92 -82q-72 -90 -191 -139t-244 -49q-229 0 -376 143q-148 143 -148 377t146 380q146 148 380 148t380 -148t116 -433
h-880q14 -156 122 -246t260 -90z" />
    <glyph glyph-name="eacute" unicode="&#xe9;" horiz-adv-x="1200" 
d="M860 1434v-4l-192 -259h-125v9l153 254h164zM616 907q-156 0 -258 -90t-122 -252h751q-2 160 -108 251q-107 91 -263 91zM618 113q96 0 194 37t149 102l92 -82q-72 -90 -191 -139t-244 -49q-229 0 -376 143q-148 143 -148 377t146 380q146 148 380 148t380 -148t116 -433
h-880q14 -156 122 -246t260 -90z" />
    <glyph glyph-name="ecircumflex" unicode="&#xea;" horiz-adv-x="1200" 
d="M985 1155h-145l-197 178l-197 -178h-145v14l295 273h96l293 -273v-14zM616 907q-156 0 -258 -90t-122 -252h751q-2 160 -108 251q-107 91 -263 91zM618 113q96 0 194 37t149 102l92 -82q-72 -90 -191 -139t-244 -49q-229 0 -376 143q-148 143 -148 377t146 380
q146 148 380 148t380 -148t116 -433h-880q14 -156 122 -246t260 -90z" />
    <glyph glyph-name="edieresis" unicode="&#xeb;" horiz-adv-x="1200" 
d="M782 1341q0 55 45 79t91 0t45 -79q0 -55 -45 -79q-44 -24 -90 0t-46 79zM326 1341q0 55 45 79t90 0t45 -79t-45 -79t-90 0t-45 79zM616 907q-156 0 -258 -90t-122 -252h751q-2 160 -108 251q-107 91 -263 91zM618 113q96 0 194 37t149 102l92 -82q-72 -90 -191 -139
t-244 -49q-229 0 -376 143q-148 143 -148 377t146 380q146 148 380 148t380 -148t116 -433h-880q14 -156 122 -246t260 -90z" />
    <glyph glyph-name="igrave" unicode="&#xec;" horiz-adv-x="460" 
d="M301 0h-141v1006h141v-1006zM305 1188h-135l-137 246v2h157l115 -240v-8z" />
    <glyph glyph-name="iacute" unicode="&#xed;" horiz-adv-x="460" 
d="M160 0v1006h141v-1006h-141zM150 1188v8l114 240h158v-2l-137 -246h-135z" />
    <glyph glyph-name="icircumflex" unicode="&#xee;" horiz-adv-x="460" 
d="M160 0v1006h141v-1006h-141zM467 1174h-127l-117 141l-119 -141h-120v12l211 252h63l209 -250v-14z" />
    <glyph glyph-name="idieresis" unicode="&#xef;" horiz-adv-x="460" 
d="M160 0v1006h141v-1006h-141zM-6 1348q0 56 45 78t90 -1t45 -77t-45 -78q-45 -23 -90 0t-45 78zM299 1348q0 56 45 78t90 -1t45 -77t-45 -78q-45 -23 -90 0t-45 78z" />
    <glyph glyph-name="eth" unicode="&#xf0;" horiz-adv-x="1239" 
d="M614 -23q-244 0 -381 151q-137 152 -137 356t129 353q130 148 353 156t372 -135q-27 92 -104 180q-78 88 -172 150l-80 -111l-80 53l76 107q-94 55 -201 78l33 117q143 -41 246 -95l94 129l80 -55l-90 -123q381 -266 385 -772q5 -240 -137 -390t-386 -149zM238 489
q0 -157 100 -271t279 -114t280 115q100 115 100 271t-100 269q-99 113 -279 113t-280 -114t-100 -269z" />
    <glyph glyph-name="ntilde" unicode="&#xf1;" horiz-adv-x="1245" 
d="M446 1286l-92 35q16 74 72 109t127 22q23 -4 89 -35t107 -27q42 4 62 60l92 -35q-15 -79 -71 -111t-125 -20q-23 6 -77 30t-91 31q-69 13 -93 -59zM1098 0h-140v567q0 160 -88 246t-237 85t-243 -100t-93 -247v-551h-137v1012h131l4 -170q121 186 352 186q203 0 327 -119
t124 -340v-569z" />
    <glyph glyph-name="ograve" unicode="&#xf2;" horiz-adv-x="1228" 
d="M406 1434h167l152 -246v-6h-129l-190 248v4zM614 905q-168 -1 -276 -113t-107 -288q0 -176 108 -284q107 -108 277 -108t276 108q105 108 105 284t-107 289q-108 112 -276 112zM611 1030q227 0 375 -147t148 -379t-146 -376t-372 -144t-374 144t-148 376t146 380
q146 146 371 146z" />
    <glyph glyph-name="oacute" unicode="&#xf3;" horiz-adv-x="1228" 
d="M838 1436v-4l-185 -242h-121v8l148 238h158zM614 905q-168 -1 -276 -113t-107 -288q0 -176 108 -284q107 -108 277 -108t276 108q105 108 105 284t-107 289q-108 112 -276 112zM611 1030q227 0 375 -147t148 -379t-146 -376t-372 -144t-374 144t-148 376t146 380
q146 146 371 146z" />
    <glyph glyph-name="ocircumflex" unicode="&#xf4;" horiz-adv-x="1228" 
d="M971 1163h-146l-196 178l-197 -178h-145v15l295 272h96l293 -272v-15zM614 905q-168 -1 -276 -113t-107 -288q0 -176 108 -284q107 -108 277 -108t276 108q105 108 105 284t-107 289q-108 112 -276 112zM611 1030q227 0 375 -147t148 -379t-146 -376t-372 -144t-374 144
t-148 376t146 380q146 146 371 146z" />
    <glyph glyph-name="otilde" unicode="&#xf5;" horiz-adv-x="1228" 
d="M440 1280l-92 35q16 77 72 113t131 24q23 -4 89 -36t106 -30q42 2 63 64l92 -37q-15 -82 -71 -116t-125 -19q-23 6 -59 22t-62 26q-74 29 -103 10t-41 -56zM614 905q-168 -1 -276 -113t-107 -288q0 -176 108 -284q107 -108 277 -108t276 108q105 108 105 284t-107 289
q-108 112 -276 112zM611 1030q227 0 375 -147t148 -379t-146 -376t-372 -144t-374 144t-148 376t146 380q146 146 371 146z" />
    <glyph glyph-name="odieresis" unicode="&#xf6;" horiz-adv-x="1228" 
d="M764 1343q0 55 45 79t90 0t45 -79t-45 -79t-90 0t-45 79zM307 1343q0 55 45 79t90 0t45 -79t-45 -79t-90 0t-45 79zM614 905q-168 -1 -276 -113t-107 -288q0 -176 108 -284q107 -108 277 -108t276 108q105 108 105 284t-107 289q-108 112 -276 112zM611 1030
q227 0 375 -147t148 -379t-146 -376t-372 -144t-374 144t-148 376t146 380q146 146 371 146z" />
    <glyph glyph-name="divide" unicode="&#xf7;" horiz-adv-x="1144" 
d="M479 1004q0 60 48 84q49 24 97 -1t48 -83t-48 -84q-48 -25 -97 0q-48 25 -48 84zM479 345q0 60 48 85q49 25 97 0t48 -85t-48 -85t-97 0q-48 25 -48 85zM154 739h837v-125h-837v125z" />
    <glyph glyph-name="oslash" unicode="&#xf8;" horiz-adv-x="1222" 
d="M610 115q166 -1 274 107t108 288t-128 293l-395 -664q63 -24 141 -24zM610 903q-164 -1 -272 -113t-107 -298q0 -186 138 -291l397 667q-80 35 -156 35zM610 1030q119 0 224 -47l75 127h138l-113 -188q195 -147 194 -418q0 -232 -146 -376t-372 -144q-117 0 -213 39
l-82 -140h-135l117 197q-203 143 -203 424q0 234 148 380t368 146z" />
    <glyph glyph-name="ugrave" unicode="&#xf9;" horiz-adv-x="1241" 
d="M408 1434h167l152 -254v-9h-129l-190 259v4zM145 1012h138v-568q0 -158 89 -244t238 -86q149 1 243 100q93 99 93 247v551h135v-1012h-127l-4 170q-119 -182 -358 -186q-201 0 -324 122t-123 336v570z" />
    <glyph glyph-name="uacute" unicode="&#xfa;" horiz-adv-x="1241" 
d="M842 1434v-4l-193 -259h-125v9l154 254h164zM283 1012v-568q0 -158 89 -244t238 -86q149 1 243 100q93 99 93 247v551h135v-1012h-127l-4 170q-119 -182 -358 -186q-201 0 -324 122t-123 336v570h138z" />
    <glyph glyph-name="ucircumflex" unicode="&#xfb;" horiz-adv-x="1241" 
d="M961 1165h-142l-190 172l-189 -172h-141v13l285 264h92l285 -264v-13zM283 1012v-568q0 -158 89 -244t238 -86q149 1 243 100q93 99 93 247v551h135v-1012h-127l-4 170q-119 -182 -358 -186q-201 0 -324 122t-123 336v570h138z" />
    <glyph glyph-name="udieresis" unicode="&#xfc;" horiz-adv-x="1241" 
d="M772 1341q0 55 45 79t90 0t45 -79t-45 -79t-90 0t-45 79zM315 1341q0 55 45 79q44 24 90 0t46 -79t-45 -79t-91 0t-45 79zM283 1012v-568q0 -158 89 -244t238 -86q149 1 243 100q93 99 93 247v551h135v-1012h-127l-4 170q-119 -182 -358 -186q-201 0 -324 122t-123 336
v570h138z" />
    <glyph glyph-name="yacute" unicode="&#xfd;" horiz-adv-x="1114" 
d="M774 1434v-2l-182 -244h-119v6l145 240h156zM1055 1012l-641 -1495h-150l213 495l-405 1000h153l328 -850l115 291l235 559h152z" />
    <glyph glyph-name="thorn" unicode="&#xfe;" horiz-adv-x="1302" 
d="M295 -422h-135v1854h133l2 -635q59 107 171 169t243 62q217 -6 357 -144t140 -382t-145 -383t-369 -139q-123 0 -229 58t-168 171v-631zM689 113q163 0 271 102q108 101 107 289q0 188 -108 290q-109 102 -273 101q-164 0 -272 -112q-108 -111 -107 -279
q-1 -168 109 -280t273 -111z" />
    <glyph glyph-name="ydieresis" unicode="&#xff;" horiz-adv-x="1114" 
d="M698 1356q0 53 43 75t86 0t43 -75t-43 -76t-86 0t-43 76zM264 1356q0 53 43 75t86 0t43 -75t-43 -76t-86 0t-43 76zM1055 1012l-641 -1495h-150l213 495l-405 1000h153l328 -850l115 291l235 559h152z" />
    <glyph glyph-name="Amacron" unicode="&#x100;" horiz-adv-x="1515" 
d="M442 1591v119h627v-119h-627zM758 1278l-359 -815h717zM1321 0l-147 332h-832l-147 -332h-152l643 1434h143l644 -1434h-152z" />
    <glyph glyph-name="amacron" unicode="&#x101;" horiz-adv-x="1298" 
d="M346 1270v112h610v-112h-610zM616 901q-164 -1 -274 -111t-111 -285q0 -175 111 -286t274 -110q106 0 192 44q86 43 128 113q148 239 0 477q-42 70 -128 114t-192 44zM1010 1012h129v-1012h-127v201q-63 -109 -173 -165t-229 -56q-221 0 -368 145q-148 145 -148 379
t148 378t370 144q123 0 233 -56t165 -159v201z" />
    <glyph glyph-name="Abreve" unicode="&#x102;" horiz-adv-x="1515" 
d="M920 1829h118q4 -121 -72 -187t-206 -66q-131 0 -207 69q-76 68 -72 184h113q0 -63 38 -107t125 -43q87 -1 125 43t38 107zM758 1278l-359 -815h717zM1321 0l-147 332h-832l-147 -332h-152l643 1434h143l644 -1434h-152z" />
    <glyph glyph-name="abreve" unicode="&#x103;" horiz-adv-x="1298" 
d="M815 1434h115q4 -127 -70 -196t-201 -69t-201 71t-69 194h111q0 -158 157 -158q82 0 120 45t38 113zM616 901q-164 -1 -274 -111t-111 -285q0 -175 111 -286t274 -110q106 0 192 44q86 43 128 113q148 239 0 477q-42 70 -128 114t-192 44zM1010 1012h129v-1012h-127v201
q-63 -109 -173 -165t-229 -56q-221 0 -368 145q-148 145 -148 379t148 378t370 144q123 0 233 -56t165 -159v201z" />
    <glyph glyph-name="Aogonek" unicode="&#x104;" horiz-adv-x="1525" 
d="M1477 -135l82 -51q-63 -121 -232 -140q-90 -10 -156 24q-115 59 -93 206q8 59 66 108t148 64l-114 256h-836l-147 -332h-152l643 1434h152l645 -1436q-113 8 -160 0q-88 -14 -124 -70t-1 -106q34 -49 128 -45t151 88zM1118 471l-356 817l-361 -817h717z" />
    <glyph glyph-name="aogonek" unicode="&#x105;" horiz-adv-x="1298" 
d="M616 899q-166 0 -276 -105q-110 -106 -109 -288q0 -182 110 -288t275 -107q106 0 192 43q86 42 128 112q148 239 0 477q-42 70 -128 113t-192 43zM610 -20q-227 0 -371 144q-145 144 -145 380t148 378q148 144 370 144q122 0 228 -55t161 -160l3 201h135v-1084
q-139 12 -195 -65q-39 -59 6 -105q25 -25 68 -30q41 -10 94 7t92 66l80 -51q-31 -61 -94 -98t-145 -41t-147 31t-85 98q-29 76 21 156t174 106l-7 197q-63 -109 -167 -164t-224 -55z" />
    <glyph glyph-name="Cacute" unicode="&#x106;" horiz-adv-x="1452" 
d="M1049 1843v-4l-183 -246h-118v9l145 241h156zM854 1454q150 0 284 -54t224 -161l-88 -88q-176 172 -420 172q-286 0 -444 -179t-158 -438t157 -427t428 -168t447 176l92 -92q-217 -217 -522 -218q-356 0 -550 208t-195 524q-1 201 79 367t253 272t413 106z" />
    <glyph glyph-name="cacute" unicode="&#x107;" horiz-adv-x="1056" 
d="M788 1434v-2l-159 -228h-107v8l129 222h137zM94 506q0 240 148 380t366 140q217 0 369 -149l-90 -89q-111 109 -273 109t-272 -105q-111 -106 -111 -288t111 -286q110 -104 276 -103q166 0 281 114l94 -92q-156 -153 -377 -153q-222 0 -372 141t-150 381z" />
    <glyph glyph-name="Ccircumflex" unicode="&#x108;" horiz-adv-x="1452" 
d="M1184 1604h-142l-190 172l-188 -172h-142v12l285 264h92l285 -264v-12zM854 1454q150 0 284 -54t224 -161l-88 -88q-176 172 -420 172q-286 0 -444 -179t-158 -438t157 -427t428 -168t447 176l92 -92q-217 -217 -522 -218q-356 0 -550 208t-195 524q-1 201 79 367
t253 272t413 106z" />
    <glyph glyph-name="ccircumflex" unicode="&#x109;" horiz-adv-x="1056" 
d="M911 1174h-131l-178 163l-178 -163h-131v12l266 254h88l264 -254v-12zM94 506q0 240 148 380t366 140q217 0 369 -149l-90 -89q-111 109 -273 109t-272 -105q-111 -106 -111 -288t111 -286q110 -104 276 -103q166 0 281 114l94 -92q-156 -153 -377 -153q-222 0 -372 141
t-150 381z" />
    <glyph glyph-name="Cdotaccent" unicode="&#x10a;" horiz-adv-x="1452" 
d="M743 1686q-1 61 53 86t107 0t53 -86q0 -60 -53 -86t-107 0t-53 86zM854 1454q150 0 284 -54t224 -161l-88 -88q-176 172 -420 172q-286 0 -444 -179t-158 -438t157 -427t428 -168t447 176l92 -92q-217 -217 -522 -218q-356 0 -550 208t-195 524q-1 201 79 367t253 272
t413 106z" />
    <glyph glyph-name="cdotaccent" unicode="&#x10b;" horiz-adv-x="1056" 
d="M518 1327q0 53 47 76t94 0t47 -76t-46 -76q-48 -23 -95 0t-47 76zM94 506q0 240 148 380t366 140q217 0 369 -149l-90 -89q-111 109 -273 109t-272 -105q-111 -106 -111 -288t111 -286q110 -104 276 -103q166 0 281 114l94 -92q-156 -153 -377 -153q-222 0 -372 141
t-150 381z" />
    <glyph glyph-name="Ccaron" unicode="&#x10c;" horiz-adv-x="1452" 
d="M526 1858h136l182 -168l186 168h133v-15l-276 -254h-88l-273 254v15zM854 1454q150 0 284 -54t224 -161l-88 -88q-176 172 -420 172q-286 0 -444 -179t-158 -438t157 -427t428 -168t447 176l92 -92q-217 -217 -522 -218q-356 0 -550 208t-195 524q-1 201 79 367t253 272
t413 106z" />
    <glyph glyph-name="ccaron" unicode="&#x10d;" horiz-adv-x="1056" 
d="M293 1436h133l180 -168l185 168h131v-15l-271 -252h-90l-268 252v15zM94 506q0 240 148 380t366 140q217 0 369 -149l-90 -89q-111 109 -273 109t-272 -105q-111 -106 -111 -288t111 -286q110 -104 276 -103q166 0 281 114l94 -92q-156 -153 -377 -153q-222 0 -372 141
t-150 381z" />
    <glyph glyph-name="Dcaron" unicode="&#x10e;" horiz-adv-x="1531" 
d="M338 1858h139l187 -172l192 172h137v-15l-284 -262h-93l-278 262v15zM342 133h363q332 0 488 264q89 151 85 316t-64 291t-192 210q-133 84 -317 84h-363v-1165zM705 1434q176 0 316 -60t226 -160q176 -206 176 -487q0 -282 -170 -497q-84 -106 -226 -168t-322 -62h-506
v1434h506z" />
    <glyph glyph-name="dcaron" unicode="&#x10f;" horiz-adv-x="1300" 
d="M1233 1106l84 330h133l-115 -330h-102zM1004 1434h137v-1434h-133l-4 203q-59 -105 -167 -163t-231 -58q-223 0 -366 139t-144 385q0 246 144 385t366 139q125 0 234 -56t164 -163v623zM613 899q-165 0 -273 -103q-108 -102 -107 -288q0 -186 109 -290q108 -104 272 -105
q164 1 274 111t110 283t-110 283q-110 109 -275 109z" />
    <glyph glyph-name="Dcroat" unicode="&#x110;" horiz-adv-x="1544" 
d="M354 664v-531h363q336 0 488 264q89 151 85 316t-63 291t-193 210t-317 84h-363v-516h273v-118h-273zM59 664v118h152v652h506q176 0 316 -60q141 -60 227 -160q176 -205 176 -487t-170 -497q-84 -106 -226 -168t-323 -62h-506v664h-152z" />
    <glyph glyph-name="dcroat" unicode="&#x111;" horiz-adv-x="1300" 
d="M613 899q-165 0 -273 -103q-108 -102 -107 -288q0 -186 109 -290q108 -104 272 -105q164 1 274 111t110 283t-110 283q-110 109 -275 109zM1004 1434h137v-146h149v-104h-149v-1184h-133l-4 203q-59 -105 -167 -163t-231 -58q-223 0 -366 139t-144 385q0 246 144 385
t366 139q125 0 234 -56t164 -163v373h-222v104h222v146z" />
    <glyph glyph-name="Emacron" unicode="&#x112;" horiz-adv-x="1341" 
d="M428 1612v117h567v-117h-567zM1227 135v-135h-1028v1434h1009v-136h-866v-514h827v-133h-827v-516h885z" />
    <glyph glyph-name="emacron" unicode="&#x113;" horiz-adv-x="1200" 
d="M334 1272v110h575v-110h-575zM616 907q-156 0 -258 -90t-122 -252h751q-2 160 -108 251q-107 91 -263 91zM618 113q96 0 194 37t149 102l92 -82q-72 -90 -191 -139t-244 -49q-229 0 -376 143q-148 143 -148 377t146 380q146 148 380 148t380 -148t116 -433h-880
q14 -156 122 -246t260 -90z" />
    <glyph glyph-name="Ebreve" unicode="&#x114;" horiz-adv-x="1341" 
d="M891 1841h119q4 -123 -73 -191t-208 -67q-131 0 -208 69t-72 189h114q0 -65 38 -109t125 -44t126 44t39 109zM1227 135v-135h-1028v1434h1009v-136h-866v-514h827v-133h-827v-516h885z" />
    <glyph glyph-name="ebreve" unicode="&#x115;" horiz-adv-x="1200" 
d="M778 1434h115q4 -123 -70 -190q-75 -66 -201 -66t-200 68t-70 188h111q0 -66 36 -110t120 -44q83 0 121 44t38 110zM616 907q-156 0 -258 -90t-122 -252h751q-2 160 -108 251q-107 91 -263 91zM618 113q96 0 194 37t149 102l92 -82q-72 -90 -191 -139t-244 -49
q-229 0 -376 143q-148 143 -148 377t146 380q146 148 380 148t380 -148t116 -433h-880q14 -156 122 -246t260 -90z" />
    <glyph glyph-name="Edotaccent" unicode="&#x116;" horiz-adv-x="1341" 
d="M625 1663q0 61 48 86t97 0t49 -86t-49 -86t-97 0t-48 86zM1227 0h-1028v1434h1009v-136h-866v-514h827v-133h-827v-516h885v-135z" />
    <glyph glyph-name="edotaccent" unicode="&#x117;" horiz-adv-x="1200" 
d="M532 1352q0 61 50 86t97 0q48 -25 48 -86t-48 -86q-47 -25 -97 0t-50 86zM616 907q-156 0 -258 -90t-122 -252h751q-2 160 -108 251q-107 91 -263 91zM618 113q96 0 194 37t149 102l92 -82q-72 -90 -191 -139t-244 -49q-229 0 -376 143q-148 143 -148 377t146 380
q146 148 380 148t380 -148t116 -433h-880q14 -156 122 -246t260 -90z" />
    <glyph glyph-name="Eogonek" unicode="&#x118;" horiz-adv-x="1341" 
d="M199 0v1434h1009v-136h-870v-510h831v-135h-831v-516h889v-137q-188 6 -246 -81q-25 -38 -4 -91q31 -54 103 -56t147 66l73 -76q-55 -74 -147 -98t-175 7q-126 45 -129 172q-1 38 23 84q25 46 80 73h-753z" />
    <glyph glyph-name="eogonek" unicode="&#x119;" horiz-adv-x="1202" 
d="M625 907q-159 0 -265 -91t-124 -251h751q-2 164 -103 253t-259 89zM618 113q96 0 194 37t149 102l92 -82q-80 -100 -224 -152q-57 -25 -65 -83t29 -85q61 -52 138 -32t113 82l82 -52q-61 -112 -198 -140t-219 56q-47 48 -51 108t47 118q-45 -8 -125 -2q-213 12 -350 152
q-136 140 -136 366t148 376q148 148 378 148q232 0 378 -148t118 -433h-880q14 -156 122 -246t260 -90z" />
    <glyph glyph-name="Ecaron" unicode="&#x11a;" horiz-adv-x="1341" 
d="M403 1858h140l190 -175l193 175h137v-15l-285 -264h-92l-283 264v15zM1227 0h-1028v1434h1009v-136h-866v-514h827v-133h-827v-516h885v-135z" />
    <glyph glyph-name="ecaron" unicode="&#x11b;" horiz-adv-x="1200" 
d="M291 1436h139l186 -172l191 172h137v-15l-282 -260h-93l-278 260v15zM616 907q-156 0 -258 -90t-122 -252h751q-2 160 -108 251q-107 91 -263 91zM618 113q96 0 194 37t149 102l92 -82q-72 -90 -191 -139t-244 -49q-229 0 -376 143q-148 143 -148 377t146 380
q146 148 380 148t380 -148t116 -433h-880q14 -156 122 -246t260 -90z" />
    <glyph glyph-name="Gcircumflex" unicode="&#x11c;" horiz-adv-x="1529" 
d="M1176 1602h-140l-186 170l-188 -170h-138v12l281 262h92l279 -262v-12zM852 1323q-282 0 -442 -178t-159 -431t158 -424t443 -171q238 0 412 155v363h-469v133h606v-555q-229 -236 -549 -235q-356 0 -550 210t-194 530q0 322 204 530t526 208t540 -215l-86 -92
q-84 84 -202 128t-238 44z" />
    <glyph glyph-name="gcircumflex" unicode="&#x11d;" horiz-adv-x="1251" 
d="M989 1190h-139l-186 168l-187 -168h-139v12l280 260h93l278 -260v-12zM627 168q173 0 281 108t108 275q0 166 -114 261t-272 95q-159 0 -277 -95q-117 -95 -117 -274t109 -275q110 -95 282 -95zM1153 522q0 -126 -79 -246t-226 -161q299 -80 299 -332q0 -181 -153 -283
q-154 -102 -372 -102t-364 113q-145 113 -143 305h137q-2 -135 108 -210t267 -75t269 63q112 62 112 188t-113 192t-268 67q-238 0 -384 133q-147 132 -147 364t161 365t357 133t312 -82l106 127l94 -77l-108 -130q66 -74 100 -150t35 -202z" />
    <glyph glyph-name="Gbreve" unicode="&#x11e;" horiz-adv-x="1529" 
d="M1010 1839h114q4 -117 -70 -181t-201 -65q-128 0 -203 66t-70 180h112q0 -61 36 -104t121 -43t123 43t38 104zM852 1323q-282 0 -442 -178t-159 -431t158 -424t443 -171q238 0 412 155v363h-469v133h606v-555q-229 -236 -549 -235q-356 0 -550 210t-194 530
q0 322 204 530t526 208t540 -215l-86 -92q-84 84 -202 128t-238 44z" />
    <glyph glyph-name="gbreve" unicode="&#x11f;" horiz-adv-x="1251" 
d="M801 1454h114q5 -127 -69 -196q-74 -68 -201 -68t-201 71t-69 193h110q0 -158 158 -158q82 0 120 45t38 113zM627 168q173 0 281 108t108 275q0 166 -114 261t-272 95q-159 0 -277 -95q-117 -95 -117 -274t109 -275q110 -95 282 -95zM1153 522q0 -126 -79 -246t-226 -161
q299 -80 299 -332q0 -181 -153 -283q-154 -102 -372 -102t-364 113q-145 113 -143 305h137q-2 -135 108 -210t267 -75t269 63q112 62 112 188t-113 192t-268 67q-238 0 -384 133q-147 132 -147 364t161 365t357 133t312 -82l106 127l94 -77l-108 -130q66 -74 100 -150
t35 -202z" />
    <glyph glyph-name="Gdotaccent" unicode="&#x120;" horiz-adv-x="1529" 
d="M944 1685q0 -51 -32 -75t-68 -25q-36 1 -69 25q-32 24 -32 75q1 51 51 76t100 0t50 -76zM852 1323q-282 0 -442 -178t-159 -431t158 -424t443 -171q238 0 412 155v363h-469v133h606v-555q-229 -236 -549 -235q-356 0 -550 210t-194 530q0 322 204 530t526 208t540 -215
l-86 -92q-84 84 -202 128t-238 44z" />
    <glyph glyph-name="gdotaccent" unicode="&#x121;" horiz-adv-x="1251" 
d="M659 1257q-37 0 -69 25t-31 76q0 51 50 76q51 25 101 0t50 -76t-32 -76t-69 -25zM627 168q173 0 281 108t108 275q0 166 -114 261t-272 95q-159 0 -277 -95q-117 -95 -117 -274t109 -275q110 -95 282 -95zM1153 522q0 -126 -79 -246t-226 -161q299 -80 299 -332
q0 -181 -153 -283q-154 -102 -372 -102t-364 113q-145 113 -143 305h137q-2 -135 108 -210t267 -75t269 63q112 62 112 188t-113 192t-268 67q-238 0 -384 133q-147 132 -147 364t161 365t357 133t312 -82l106 127l94 -77l-108 -130q66 -74 100 -150t35 -202z" />
    <glyph glyph-name="Gcommaaccent" unicode="&#x122;" horiz-adv-x="1529" 
d="M904 -198q20 -24 20 -60q0 -35 -36 -125t-52 -135h-103l58 178q-61 18 -62 82q0 35 21 58q36 44 106 31q28 -5 48 -29zM852 1323q-282 0 -442 -178t-159 -431t158 -424t443 -171q238 0 412 155v363h-469v133h606v-555q-229 -236 -549 -235q-356 0 -550 210t-194 530
q0 322 204 530t526 208t540 -215l-86 -92q-84 84 -202 128t-238 44z" />
    <glyph glyph-name="gcommaaccent" unicode="&#x123;" horiz-adv-x="1251" 
d="M627 168q173 0 281 108t108 275q0 166 -114 261t-272 95q-159 0 -277 -95q-117 -95 -117 -274t109 -275q110 -95 282 -95zM1153 522q0 -126 -79 -246t-226 -161q299 -80 299 -332q0 -181 -153 -283q-154 -102 -372 -102t-364 113q-145 113 -143 305h137q-2 -135 108 -210
t267 -75t269 63q112 62 112 188t-113 192t-268 67q-238 0 -384 133q-147 132 -147 364t161 365t357 133t312 -82l106 127l94 -77l-108 -130q66 -74 100 -150t35 -202zM526 1323q0 45 34 131t48 125h97l-54 -168q57 -19 57 -75t-44 -79q-45 -23 -92 -1q-46 22 -46 67z" />
    <glyph glyph-name="Hcircumflex" unicode="&#x124;" horiz-adv-x="1552" 
d="M1102 1583h-141l-193 174l-190 -174h-142v14l287 267h94l285 -267v-14zM1210 0v635h-868v-635h-143v1434h143v-664h868v664h144v-1434h-144z" />
    <glyph glyph-name="hcircumflex" unicode="&#x125;" horiz-adv-x="1216" 
d="M926 1571h-140l-188 172l-188 -172h-140v12l283 264h92l281 -264v-12zM295 1434v-598q115 186 352 190q207 0 315 -124t107 -335v-567h-137v567q0 156 -76 242t-223 86t-241 -100t-95 -250v-545h-137v1434h135z" />
    <glyph glyph-name="Hbar" unicode="&#x126;" horiz-adv-x="1583" 
d="M362 770h861v311h-861v-311zM1372 0h-149v633h-861v-633h-151v1081h-148v105h148v248h151v-248h861v248h149v-248h150v-105h-150v-1081z" />
    <glyph glyph-name="hbar" unicode="&#x127;" horiz-adv-x="1216" 
d="M29 1171v107h131v156h135v-156h250v-107h-250v-335q115 186 352 190q207 0 315 -124t107 -335v-567h-137v567q0 156 -76 242t-223 86t-241 -100t-95 -250v-545h-137v1171h-131z" />
    <glyph glyph-name="Itilde" unicode="&#x128;" horiz-adv-x="540" 
d="M90 1610l-90 37q16 75 70 113t127 24q23 -4 86 -36t104 -30t62 64l90 -37q-17 -82 -71 -117t-122 -20q-28 8 -86 35q-58 26 -86 30q-60 8 -84 -63zM342 0h-143v1434h143v-1434z" />
    <glyph glyph-name="itilde" unicode="&#x129;" horiz-adv-x="460" 
d="M82 1300l-76 35q14 78 58 115q63 52 159 -2q37 -20 63 -34t52 -2q26 11 39 58l74 -34q-11 -82 -57 -116t-101 -22q-19 6 -97 51q-58 29 -81 8q-23 -20 -33 -57zM301 0h-141v1006h141v-1006z" />
    <glyph glyph-name="Imacron" unicode="&#x12a;" horiz-adv-x="540" 
d="M20 1569v114h498v-114h-498zM342 0h-143v1434h143v-1434z" />
    <glyph glyph-name="imacron" unicode="&#x12b;" horiz-adv-x="460" 
d="M23 1317v113h413v-113h-413zM301 0h-141v1006h141v-1006z" />
    <glyph glyph-name="Ibreve" unicode="&#x12c;" horiz-adv-x="540" 
d="M416 1833h104q4 -117 -64 -180t-183 -63t-183 64q-68 65 -65 179h102q0 -145 143 -145q76 0 111 42t35 103zM342 0h-143v1434h143v-1434z" />
    <glyph glyph-name="ibreve" unicode="&#x12d;" horiz-adv-x="460" 
d="M301 0h-141v1006h141v-1006zM354 1417h103q3 -119 -61 -182t-165 -64q-238 0 -231 246h98q0 -141 131 -141q125 0 125 141z" />
    <glyph glyph-name="Iogonek" unicode="&#x12e;" horiz-adv-x="550" 
d="M203 1434h149v-1434q-133 -2 -162 -82q-20 -63 33 -102q63 -44 153 -18q52 15 89 65l82 -53q-35 -66 -104 -102t-155 -38t-150 44q-62 46 -73 115t23 131q35 62 115 89v1385z" />
    <glyph glyph-name="iogonek" unicode="&#x12f;" horiz-adv-x="462" 
d="M139 1329q0 61 49 86q50 25 98 0t48 -86t-48 -86t-98 0q-49 25 -49 86zM303 1016v-1016q-109 -2 -147 -70t7 -116t113 -41q68 8 115 63l70 -51q-53 -97 -172 -111t-201 68q-39 41 -49 102t21 121q32 59 106 84v967h137z" />
    <glyph glyph-name="Idotaccent" unicode="&#x130;" horiz-adv-x="540" 
d="M275 1577q-37 1 -69 25t-32 75t50 76t102 0t51 -76q0 -51 -32 -75t-70 -25zM199 0v1434h143v-1434h-143z" />
    <glyph glyph-name="dotlessi" unicode="&#x131;" horiz-adv-x="460" 
d="M301 0h-141v1006h141v-1006z" />
    <glyph glyph-name="IJ" unicode="&#x132;" horiz-adv-x="1941" 
d="M1090 1434h669v-875q0 -266 -162 -422q-161 -155 -419 -155t-421 156t-163 417h143q0 -199 121 -319t319 -119q199 -1 319 117t120 325v741h-526v134zM342 0h-143v1434h143v-1434z" />
    <glyph glyph-name="ij" unicode="&#x133;" horiz-adv-x="913" 
d="M588 1337q0 61 48 86t97 0t49 -86t-49 -86t-97 0t-48 86zM754 1014v-1155q0 -177 -62 -271t-219 -94q-94 0 -192 57l43 113q70 -37 140 -37t104 34t41 77t7 121v1155h138zM133 1329q0 61 48 86q47 25 97 0t50 -86t-48 -86t-98 0q-49 25 -49 86zM297 1016v-1016h-137v1016
h137z" />
    <glyph glyph-name="Jcircumflex" unicode="&#x134;" horiz-adv-x="1400" 
d="M1151 1585h-141l-193 172l-190 -172h-142v14l287 265h94l285 -265v-14zM1219 1434v-875q0 -266 -162 -422q-162 -155 -420 -155t-421 156t-163 417h144q1 -199 121 -319t318 -119q198 -1 318 117t121 325v741h-526v134h670z" />
    <glyph glyph-name="jcircumflex" unicode="&#x135;" horiz-adv-x="456" 
d="M475 1161h-115l-141 166l-145 -166h-111v15l221 266h72l219 -266v-15zM297 1014v-1155q0 -177 -61 -271t-220 -94q-94 0 -192 57l43 113q71 -37 141 -37t104 34t41 77t7 121v1155h137z" />
    <glyph glyph-name="Kcommaaccent" unicode="&#x136;" horiz-adv-x="1241" 
d="M594 -234q0 58 47 82t94 0q47 -22 47 -70t-36 -133t-50 -128h-98l55 172q-59 19 -59 77zM1178 1434v-11l-699 -678l760 -735v-10h-178l-719 694v-694h-143v1434h143v-646l666 646h170z" />
    <glyph glyph-name="kcommaaccent" unicode="&#x137;" horiz-adv-x="987" 
d="M451 -224q0 54 43 76t87 0t44 -64t-33 -121q-33 -78 -47 -120h-90l51 158q-55 17 -55 71zM160 1434h135v-856l442 434h174v-8l-485 -469l545 -527v-8h-176l-500 485v-485h-135v1434z" />
    <glyph glyph-name="kgreenlandic" unicode="&#x138;" horiz-adv-x="989" 
d="M160 1012h137v-434l442 434h174v-8l-485 -469l545 -527v-8h-170l-506 485v-485h-137v1012z" />
    <glyph glyph-name="Lacute" unicode="&#x139;" horiz-adv-x="1173" 
d="M526 1839v-4l-180 -242h-117v9l144 237h153zM342 1434v-1299h797v-135h-940v1434h143z" />
    <glyph glyph-name="lacute" unicode="&#x13a;" horiz-adv-x="485" 
d="M442 1796v-2l-170 -227h-108v6l133 223h145zM311 1434v-1434h-137v1434h137z" />
    <glyph glyph-name="Lcommaaccent" unicode="&#x13b;" horiz-adv-x="1173" 
d="M582 -247q0 54 45 77t89 1t44 -68t-33 -124q-33 -77 -47 -120h-94l53 162q-57 18 -57 72zM199 1434h143v-1299h797v-135h-940v1434z" />
    <glyph glyph-name="lcommaaccent" unicode="&#x13c;" horiz-adv-x="485" 
d="M150 -247q0 54 44 77t89 1t45 -66t-33 -123q-33 -80 -47 -123h-94l53 162q-57 18 -57 72zM174 1434h137v-1434h-137v1434z" />
    <glyph glyph-name="Lcaron" unicode="&#x13d;" horiz-adv-x="1175" 
d="M750 1090l86 340h137l-117 -340h-106zM199 1434h143v-1299h797v-135h-940v1434z" />
    <glyph glyph-name="lcaron" unicode="&#x13e;" horiz-adv-x="471" 
d="M408 1094l86 342h137l-117 -342h-106zM174 1434h137v-1434h-137v1434z" />
    <glyph glyph-name="Ldot" unicode="&#x13f;" horiz-adv-x="1173" 
d="M631 627q0 61 49 87t99 0t50 -87t-50 -87t-99 0t-49 87zM199 1434h143v-1299h797v-135h-940v1434z" />
    <glyph glyph-name="ldot" unicode="&#x140;" horiz-adv-x="669" 
d="M475 612q0 61 49 87q50 26 100 0t50 -87t-50 -87t-100 0q-49 26 -49 87zM174 1434h137v-1434h-137v1434z" />
    <glyph glyph-name="Lslash" unicode="&#x141;" horiz-adv-x="1181" 
d="M350 131h801v-131h-940v590l-148 -62v125l148 64v717h139v-654l234 101v-127l-234 -101v-522z" />
    <glyph glyph-name="lslash" unicode="&#x142;" horiz-adv-x="546" 
d="M340 0h-137v590l-144 -58v119l144 62v721h137v-662l162 68v-123l-162 -68v-649z" />
    <glyph glyph-name="Nacute" unicode="&#x143;" horiz-adv-x="1550" 
d="M973 1835v-4l-189 -248h-120v6l149 246h160zM1208 1434h144v-1434h-86l-928 1153l4 -424v-729h-143v1434h90l928 -1164l-9 475v689z" />
    <glyph glyph-name="nacute" unicode="&#x144;" horiz-adv-x="1245" 
d="M844 1440v-2l-182 -244h-119v6l145 240h156zM958 0v567q0 160 -88 246t-237 85t-243 -100t-93 -247v-551h-137v1012h131l4 -170q121 186 352 186q203 0 327 -119t124 -340v-569h-140z" />
    <glyph glyph-name="Ncommaaccent" unicode="&#x145;" horiz-adv-x="1550" 
d="M686 -216q0 54 44 77t89 1t45 -68t-33 -124q-33 -77 -47 -121h-94l53 162q-57 19 -57 73zM1208 1434h144v-1434h-86l-928 1153l4 -424v-729h-143v1434h90l928 -1164l-9 475v689z" />
    <glyph glyph-name="ncommaaccent" unicode="&#x146;" horiz-adv-x="1245" 
d="M535 -216q0 54 44 77t89 1t45 -66t-33 -123q-33 -80 -47 -124h-94l53 162q-57 19 -57 73zM1098 0h-140v567q0 160 -88 246t-237 85t-243 -100t-93 -247v-551h-137v1012h131l4 -170q121 186 352 186q203 0 327 -119t124 -340v-569z" />
    <glyph glyph-name="Ncaron" unicode="&#x147;" horiz-adv-x="1550" 
d="M461 1858h139l186 -172l191 172h137v-15l-283 -260h-92l-278 260v15zM1208 1434h144v-1434h-86l-928 1153l4 -424v-729h-143v1434h90l928 -1164l-9 475v689z" />
    <glyph glyph-name="ncaron" unicode="&#x148;" horiz-adv-x="1245" 
d="M336 1444h133l178 -164l182 164h129v-12l-268 -250h-88l-266 250v12zM958 0v567q0 160 -88 246t-237 85t-243 -100t-93 -247v-551h-137v1012h131l4 -170q121 186 352 186q203 0 327 -119t124 -340v-569h-140z" />
    <glyph glyph-name="napostrophe" unicode="&#x149;" horiz-adv-x="1245" 
d="M1098 0h-140v567q0 160 -88 246t-237 85t-243 -100t-93 -247v-551h-137v1012h131l4 -170q121 186 352 186q203 0 327 -119t124 -340v-569z" />
    <glyph glyph-name="Eng" unicode="&#x14a;" horiz-adv-x="1550" 
d="M1208 1434h144v-1487q2 -177 -62 -269t-225 -92q-92 0 -184 54l45 112q68 -37 150 -37q82 1 112 59q31 58 31 173v108l-873 1090v-1145h-147v1434h90l919 -1158v1158z" />
    <glyph glyph-name="eng" unicode="&#x14b;" horiz-adv-x="1245" 
d="M958 -47v614q0 158 -88 245t-237 86t-243 -100t-93 -247v-551h-137v1012h131l4 -170q121 186 352 186q201 0 326 -123t125 -336v-616q0 -174 -64 -266t-223 -93q-86 0 -180 54l45 112q72 -39 131 -36q94 0 123 57q28 57 28 172z" />
    <glyph glyph-name="Omacron" unicode="&#x14c;" horiz-adv-x="1665" 
d="M551 1632v121h598v-121h-598zM834 109q276 0 428 177t152 431t-150 429q-152 175 -430 176t-434 -172q-154 -173 -150 -437q4 -352 261 -517q134 -87 323 -87zM106 715q0 315 196 529t537 213t531 -219t190 -519t-181 -516q-87 -105 -228 -167t-317 -63q-233 0 -403 109
q-169 110 -247 274t-78 359z" />
    <glyph glyph-name="omacron" unicode="&#x14d;" horiz-adv-x="1228" 
d="M356 1290v115h535v-115h-535zM614 905q-168 -1 -276 -113t-107 -288q0 -176 108 -284q107 -108 277 -108t276 108q105 108 105 284t-107 289q-108 112 -276 112zM611 1030q227 0 375 -147t148 -379t-146 -376t-372 -144t-374 144t-148 376t146 380q146 146 371 146z" />
    <glyph glyph-name="Obreve" unicode="&#x14e;" horiz-adv-x="1665" 
d="M997 1831h115q4 -115 -70 -177t-200 -62t-199 64q-74 65 -70 175h111q0 -143 156 -143q82 0 120 41t37 102zM834 109q276 0 428 177t152 431t-150 429q-152 175 -430 176t-434 -172q-154 -173 -150 -437q4 -352 261 -517q134 -87 323 -87zM106 715q0 315 196 529t537 213
t531 -219t190 -519t-181 -516q-87 -105 -228 -167t-317 -63q-233 0 -403 109q-169 110 -247 274t-78 359z" />
    <glyph glyph-name="obreve" unicode="&#x14f;" horiz-adv-x="1228" 
d="M786 1434h113q4 -123 -69 -189q-74 -65 -198 -65t-197 68t-68 186h108q0 -152 156 -152q82 0 119 44q36 45 36 108zM614 905q-168 -1 -276 -113t-107 -288q0 -176 108 -284q107 -108 277 -108t276 108q105 108 105 284t-107 289q-108 112 -276 112zM611 1030
q227 0 375 -147t148 -379t-146 -376t-372 -144t-374 144t-148 376t146 380q146 146 371 146z" />
    <glyph glyph-name="Ohungarumlaut" unicode="&#x150;" horiz-adv-x="1665" 
d="M930 1831v-4l-176 -232h-121v7l149 229h148zM1212 1831v-4l-176 -232h-121v7l150 229h147zM834 109q276 0 428 177t152 431t-150 429q-152 175 -430 176t-434 -172q-154 -173 -150 -437q4 -352 261 -517q134 -87 323 -87zM106 715q0 315 196 529t537 213t531 -219
t190 -519t-181 -516q-87 -105 -228 -167t-317 -63q-233 0 -403 109q-169 110 -247 274t-78 359z" />
    <glyph glyph-name="ohungarumlaut" unicode="&#x151;" horiz-adv-x="1228" 
d="M698 1411v-4l-168 -201h-116v6l143 199h141zM969 1411v-4l-170 -201h-115v6l143 199h142zM614 905q-168 -1 -276 -113t-107 -288q0 -176 108 -284q107 -108 277 -108t276 108q105 108 105 284t-107 289q-108 112 -276 112zM611 1030q227 0 375 -147t148 -379t-146 -376
t-372 -144t-374 144t-148 376t146 380q146 146 371 146z" />
    <glyph glyph-name="OE" unicode="&#x152;" horiz-adv-x="1990" 
d="M834 1329q-283 0 -434 -166q-152 -167 -150 -453t175 -443t441 -156q70 4 131 18v1180q-81 20 -163 20zM1882 0h-885q-82 -16 -163 -16q-350 0 -538 206q-187 207 -187 532q0 324 186 526t539 202q92 0 167 -18v2h859v-129h-730v-514h689v-132h-689v-528l752 2v-133z" />
    <glyph glyph-name="oe" unicode="&#x153;" horiz-adv-x="2066" 
d="M1496 907q-156 0 -260 -91t-124 -251h741q-4 164 -102 253q-99 89 -255 89zM609 903q-163 -1 -271 -113t-107 -286t107 -282t272 -108t273 108q106 108 106 282t-108 287q-109 112 -272 112zM1491 113q96 0 189 37t145 102l94 -82q-73 -90 -189 -139t-254 -49t-256 74
t-173 202q-59 -133 -173 -204t-264 -70q-223 0 -369 144q-147 144 -147 376t148 380q148 146 368 146q152 0 268 -75t173 -207q53 126 170 204t264 78q238 0 381 -148t114 -433q-575 0 -868 -3q14 -154 120 -244t259 -89z" />
    <glyph glyph-name="Racute" unicode="&#x154;" horiz-adv-x="1449" 
d="M909 1845v-4l-184 -248h-119v9l148 243h155zM842 1298h-500v-634h492q166 0 252 87t88 228q0 141 -86 230t-246 89zM342 528v-528h-143v1434h643q227 0 350 -130t125 -318q3 -188 -107 -312q-110 -125 -325 -135l489 -539h-186l-475 528h-371z" />
    <glyph glyph-name="racute" unicode="&#x155;" horiz-adv-x="856" 
d="M678 1434v-4l-170 -230h-111v8l135 226h146zM632 1028q114 0 216 -72l-64 -114q-78 53 -192 52t-205 -91q-90 -90 -90 -228v-575h-137v1012h129l8 -166q88 182 335 182z" />
    <glyph glyph-name="Rcommaaccent" unicode="&#x156;" horiz-adv-x="1449" 
d="M825 -206q0 -46 -33 -124q-33 -77 -47 -121h-94l54 162q-57 19 -57 73t44 77q45 23 89 1t44 -68zM842 1298h-500v-634h492q166 0 252 87t88 228q0 141 -86 230t-246 89zM342 528v-528h-143v1434h643q227 0 350 -130t125 -318q3 -188 -107 -312q-110 -125 -325 -135
l489 -539h-186l-475 528h-371z" />
    <glyph glyph-name="rcommaaccent" unicode="&#x157;" horiz-adv-x="856" 
d="M317 -206q0 -46 -33 -124q-33 -77 -46 -121h-95l54 162q-57 19 -57 73t43 77q44 23 89 1t45 -68zM297 846q87 182 335 182q114 0 216 -72l-64 -114q-78 53 -192 52t-205 -91q-90 -90 -90 -228v-575h-137v1012h129z" />
    <glyph glyph-name="Rcaron" unicode="&#x158;" horiz-adv-x="1449" 
d="M369 1858h139l186 -172l191 172h137v-15l-283 -260h-92l-278 260v15zM842 1298h-500v-634h492q166 0 252 87t88 228q0 141 -86 230t-246 89zM342 528v-528h-143v1434h643q227 0 350 -130t125 -318q3 -188 -107 -312q-110 -125 -325 -135l489 -539h-186l-475 528h-371z
" />
    <glyph glyph-name="rcaron" unicode="&#x159;" horiz-adv-x="856" 
d="M190 1442h129l175 -170l178 170h127v-15l-264 -256h-84l-261 256v15zM632 1028q114 0 216 -72l-64 -114q-78 53 -192 52t-205 -91q-90 -90 -90 -228v-575h-137v1012h129l8 -166q88 182 335 182z" />
    <glyph glyph-name="Sacute" unicode="&#x15a;" horiz-adv-x="1351" 
d="M907 1853v-4l-192 -256h-123v9l151 251h164zM1255 364q0 -90 -52 -175t-139 -129q-160 -81 -370 -82q-208 -1 -370 77t-240 240l125 67q68 -129 198 -188t282 -59t272 51q69 29 109 86t40 133q0 146 -138 207q-106 46 -252 72t-210 40q-181 41 -266 112q-109 92 -109 243
q-2 106 48 187q86 139 307 190q91 20 190 20q373 0 534 -250l-120 -67q-111 178 -412 182q-100 0 -184 -19q-84 -20 -152 -82t-67 -161q0 -137 168 -195q72 -25 193 -47q120 -22 220 -44t157 -48q56 -26 102 -58t74 -70t45 -91q17 -52 17 -142z" />
    <glyph glyph-name="sacute" unicode="&#x15b;" horiz-adv-x="1021" 
d="M719 1436v-4l-178 -238h-115v8l141 234h152zM803 278q0 94 -88 131q-69 28 -172 43t-151 25q-126 26 -204 88t-77 174q0 145 120 220q121 75 287 73q231 0 381 -137l-80 -90q-113 102 -299 102q-120 2 -198 -41t-76 -123q0 -55 47 -92t97 -49t124 -23q232 -35 288 -71
q97 -61 122 -128q16 -46 15 -126t-63 -150q-112 -126 -352 -124q-303 0 -448 196l86 94q119 -160 364 -164q109 0 193 39t84 133z" />
    <glyph glyph-name="Scircumflex" unicode="&#x15c;" horiz-adv-x="1351" 
d="M1044 1608h-145l-197 178l-196 -178h-146v14l295 272h97l292 -272v-14zM1255 364q0 -90 -52 -175t-139 -129q-160 -81 -370 -82q-208 -1 -370 77t-240 240l125 67q68 -129 198 -188t282 -59t272 51q69 29 109 86t40 133q0 146 -138 207q-106 46 -252 72t-210 40
q-181 41 -266 112q-109 92 -109 243q-2 106 48 187q86 139 307 190q91 20 190 20q373 0 534 -250l-120 -67q-111 178 -412 182q-100 0 -184 -19q-84 -20 -152 -82t-67 -161q0 -137 168 -195q72 -25 193 -47q120 -22 220 -44t157 -48q56 -26 102 -58t74 -70t45 -91
q17 -52 17 -142z" />
    <glyph glyph-name="scircumflex" unicode="&#x15d;" horiz-adv-x="1021" 
d="M850 1174h-135l-183 165l-182 -165h-135v14l274 252h89l272 -252v-14zM803 278q0 94 -88 131q-69 28 -172 43t-151 25q-126 26 -204 88t-77 174q0 145 120 220q121 75 287 73q231 0 381 -137l-80 -90q-113 102 -299 102q-120 2 -198 -41t-76 -123q0 -55 47 -92t97 -49
t124 -23q232 -35 288 -71q97 -61 122 -128q16 -46 15 -126t-63 -150q-112 -126 -352 -124q-303 0 -448 196l86 94q119 -160 364 -164q109 0 193 39t84 133z" />
    <glyph glyph-name="Scedilla" unicode="&#x15e;" horiz-adv-x="1351" 
d="M1255 378q-1 -75 -31 -145q-30 -69 -79 -113q-142 -126 -404 -140l-22 -101q121 3 174 -61t34 -143t-75 -117t-132 -44q-75 -4 -145 24t-106 89l72 64q47 -70 137 -74q47 -4 87 13t50 57q18 61 -38 97t-150 7l-25 21l39 168q-186 6 -335 83q-148 78 -222 232l125 67
q68 -129 198 -188t282 -59t272 51q69 29 109 86t40 133q0 146 -138 207q-106 46 -252 72t-210 40q-181 41 -266 112q-109 92 -109 243q-2 106 48 187q86 139 307 190q91 20 190 20q372 0 534 -250l-120 -67q-111 178 -412 182q-150 0 -267 -51q-61 -27 -99 -81
q-38 -55 -38 -117q1 -104 70 -156q69 -53 209 -83q51 -11 127 -25t176 -35q100 -22 157 -48q56 -26 102 -58t74 -70t45 -91t17 -128z" />
    <glyph glyph-name="scedilla" unicode="&#x15f;" horiz-adv-x="1030" 
d="M322 -330l67 58q43 -61 131 -66q45 -4 83 12t46 50q18 53 -36 85t-144 7l-23 18l46 146q-283 14 -414 196l86 94q121 -162 364 -166q109 0 194 40t88 129t-74 126q-78 37 -186 53t-156 25q-126 26 -204 88t-77 174q0 145 120 219q121 74 287 72q233 0 381 -135l-80 -90
q-113 102 -299 102q-120 2 -198 -41t-76 -121q2 -77 76 -115t177 -51t207 -33t173 -87q71 -66 67 -193q-4 -128 -106 -200t-256 -84l-23 -88q109 6 157 -46t36 -126t-76 -115t-148 -41q-151 4 -210 104z" />
    <glyph glyph-name="Scaron" unicode="&#x160;" horiz-adv-x="1351" 
d="M356 1878h146l196 -180l201 180h143v-14l-297 -275h-96l-293 275v14zM1255 364q0 -90 -52 -175t-139 -129q-160 -81 -370 -82q-208 -1 -370 77t-240 240l125 67q68 -129 198 -188t282 -59t272 51q69 29 109 86t40 133q0 146 -138 207q-106 46 -252 72t-210 40
q-181 41 -266 112q-109 92 -109 243q-2 106 48 187q86 139 307 190q91 20 190 20q373 0 534 -250l-120 -67q-111 178 -412 182q-100 0 -184 -19q-84 -20 -152 -82t-67 -161q0 -137 168 -195q72 -25 193 -47q120 -22 220 -44t157 -48q56 -26 102 -58t74 -70t45 -91
q17 -52 17 -142z" />
    <glyph glyph-name="scaron" unicode="&#x161;" horiz-adv-x="1021" 
d="M213 1440h131l178 -162l183 162h129v-13l-269 -247h-88l-264 247v13zM803 278q0 94 -88 131q-69 28 -172 43t-151 25q-126 26 -204 88t-77 174q0 145 120 220q121 75 287 73q231 0 381 -137l-80 -90q-113 102 -299 102q-120 2 -198 -41t-76 -123q0 -55 47 -92t97 -49
t124 -23q232 -35 288 -71q97 -61 122 -128q16 -46 15 -126t-63 -150q-112 -126 -352 -124q-303 0 -448 196l86 94q119 -160 364 -164q109 0 193 39t84 133z" />
    <glyph glyph-name="Tcommaaccent" unicode="&#x162;" horiz-adv-x="1224" 
d="M543 1303h-508v129h1155v-129h-506v-1303h-43l-18 -84q121 2 169 -61t28 -145t-82 -121q-64 -40 -142 -40q-162 0 -229 115l71 64q60 -78 158 -74q39 0 73 20t42 52q18 61 -36 97t-149 7l-24 20l41 152v1301z" />
    <glyph glyph-name="tcommaaccent" unicode="&#x163;" horiz-adv-x="802" 
d="M416 1010h327v-117h-327v-504q0 -183 42 -230q42 -48 117 -48q76 0 160 39l43 -115q-104 -49 -194 -49q-31 0 -43 2l-23 -92q121 6 175 -52t34 -134q-19 -76 -81 -112t-138 -38t-140 26t-98 80l70 60q55 -70 155 -70t121 68q18 52 -38 82t-152 6l-23 18l46 176
q-100 35 -136 126q-35 91 -34 257v504h-207v117h207v286l137 15v-301z" />
    <glyph glyph-name="Tcaron" unicode="&#x164;" horiz-adv-x="1220" 
d="M272 1858h142l190 -170l195 170h139v-13l-289 -262h-92l-285 262v13zM539 1298h-506v136h1155v-136h-506v-1298h-143v1298z" />
    <glyph glyph-name="tcaron" unicode="&#x165;" horiz-adv-x="866" 
d="M713 979l84 334h135l-117 -334h-102zM408 322q0 -211 155 -211q80 0 164 39l43 -115q-104 -49 -195 -49q-305 -4 -305 336v571h-198v117h198v286l138 15v-301h208v-117h-208v-571z" />
    <glyph glyph-name="Tbar" unicode="&#x166;" horiz-adv-x="1245" 
d="M295 623v114h254v563h-504v132h1155v-132h-502v-563h258v-114h-258v-623h-149v623h-254z" />
    <glyph glyph-name="tbar" unicode="&#x167;" horiz-adv-x="802" 
d="M416 322q0 -211 156 -211q80 0 163 39l43 -115q-104 -49 -194 -49q-307 -4 -305 336v202h-160v103h160v272h-207v111h207v286l137 15v-301h327v-111h-327v-272h243v-103h-243v-202z" />
    <glyph glyph-name="Utilde" unicode="&#x168;" horiz-adv-x="1503" 
d="M578 1612l-93 35q15 77 71 113t130 24q22 -4 88 -36t108 -30t62 64l92 -37q-16 -82 -81 -122t-159 2q-95 42 -128 48q-66 12 -90 -61zM1178 1434h143v-875q0 -279 -160 -426q-161 -147 -407 -147t-409 148t-163 425v875h144v-875q0 -201 122 -321t302 -119
q182 -1 305 113t123 327v875z" />
    <glyph glyph-name="utilde" unicode="&#x169;" horiz-adv-x="1241" 
d="M444 1300l-92 33q16 74 72 109t129 22q23 -4 89 -34t107 -28q42 3 62 60l92 -35q-17 -79 -73 -111t-123 -18q-26 8 -87 33t-90 29q-62 9 -86 -60zM145 1012h138v-568q0 -158 89 -244t238 -86q149 1 243 100q93 99 93 247v551h135v-1012h-127l-4 170q-119 -182 -358 -186
q-201 0 -324 122t-123 336v570z" />
    <glyph glyph-name="Umacron" unicode="&#x16a;" horiz-adv-x="1503" 
d="M502 1589v113h534v-113h-534zM1178 1434h143v-875q0 -279 -160 -426q-161 -147 -407 -147t-409 148t-163 425v875h144v-875q0 -201 122 -321t302 -119q182 -1 305 113t123 327v875z" />
    <glyph glyph-name="umacron" unicode="&#x16b;" horiz-adv-x="1241" 
d="M369 1321v109h514v-109h-514zM145 1012h138v-568q0 -158 89 -244t238 -86q149 1 243 100q93 99 93 247v551h135v-1012h-127l-4 170q-119 -182 -358 -186q-201 0 -324 122t-123 336v570z" />
    <glyph glyph-name="Ubreve" unicode="&#x16c;" horiz-adv-x="1503" 
d="M924 1829h114q4 -127 -70 -196t-200 -69q-127 0 -201 72q-74 70 -69 193h110q0 -158 158 -158q82 0 120 45t38 113zM1178 1434h143v-875q0 -279 -160 -426q-161 -147 -407 -147t-409 148t-163 425v875h144v-875q0 -201 122 -321t302 -119q182 -1 305 113t123 327v875z
" />
    <glyph glyph-name="ubreve" unicode="&#x16d;" horiz-adv-x="1241" 
d="M786 1434h113q4 -121 -69 -188q-74 -66 -196 -66t-195 68t-68 186h108q0 -66 35 -109t117 -43t119 43q36 43 36 109zM145 1012h138v-568q0 -158 89 -244t238 -86q149 1 243 100q93 99 93 247v551h135v-1012h-127l-4 170q-119 -182 -358 -186q-201 0 -324 122t-123 336
v570z" />
    <glyph glyph-name="Uring" unicode="&#x16e;" horiz-adv-x="1503" 
d="M761 1800q-73 0 -103 -51t0 -102t103 -51t103 50q30 52 0 103t-103 51zM545 1697q0 89 64 138q65 49 153 49t152 -49t65 -138q-1 -89 -63 -141t-156 -51q-94 0 -155 51q-60 52 -60 141zM1178 1434h143v-875q0 -279 -160 -426q-161 -147 -407 -147t-409 148t-163 425v875
h144v-875q0 -201 122 -321t302 -119q182 -1 305 113t123 327v875z" />
    <glyph glyph-name="uring" unicode="&#x16f;" horiz-adv-x="1241" 
d="M636 1202q62 0 90 50q30 50 0 100t-90 51q-62 0 -92 -32q-30 -33 -30 -69t30 -68t92 -32zM418 1302q0 87 61 136t147 49t149 -49t63 -136q0 -88 -62 -138t-152 -50q-91 0 -149 50q-57 51 -57 138zM145 1012h138v-568q0 -158 89 -244t238 -86q149 1 243 100q93 99 93 247
v551h135v-1012h-127l-4 170q-119 -182 -358 -186q-201 0 -324 122t-123 336v570z" />
    <glyph glyph-name="Uhungarumlaut" unicode="&#x170;" horiz-adv-x="1503" 
d="M825 1810v-4l-176 -233h-123v4l152 233h147zM1110 1810v-4l-178 -233h-121v4l152 233h147zM1321 1434v-875q0 -279 -160 -426q-161 -147 -407 -147t-409 148t-163 425v875h144v-875q0 -201 122 -321t302 -119q182 -1 305 113t123 327v875h143z" />
    <glyph glyph-name="uhungarumlaut" unicode="&#x171;" horiz-adv-x="1241" 
d="M653 1436v-4l-168 -222h-116v4l143 222h141zM926 1436v-4l-170 -222h-115v4l143 222h142zM283 1012v-568q0 -158 89 -244t238 -86q149 1 243 100q93 99 93 247v551h135v-1012h-127l-4 170q-119 -182 -358 -186q-201 0 -324 122t-123 336v570h138z" />
    <glyph glyph-name="Uogonek" unicode="&#x172;" horiz-adv-x="1501" 
d="M1171 1434h150v-764q0 -279 -85 -436t-273 -222q-99 -57 -77 -144t132 -85t178 96l86 -57q-35 -68 -110 -111q-76 -43 -156 -46t-142 28q-106 54 -115 183q-5 56 27 104q-248 -12 -426 140t-178 439v875h150v-875q0 -229 143 -347t334 -93q158 18 260 133t102 307v875z
" />
    <glyph glyph-name="uogonek" unicode="&#x173;" horiz-adv-x="1236" 
d="M983 -403q-186 0 -229 127q-27 80 24 158t174 93l-4 195q-123 -182 -360 -186q-446 0 -447 546v482h138v-480q-1 -211 71 -314t260 -103q143 0 237 99q93 99 93 247v551h137v-1104q-132 5 -194 -51q-39 -35 -27 -90q20 -72 120 -72t171 61l53 -63q-80 -96 -217 -96z" />
    <glyph glyph-name="Wcircumflex" unicode="&#x174;" horiz-adv-x="2211" 
d="M1434 1599h-142l-194 175l-193 -175h-143v15l291 266h94l287 -266v-15zM1640 -4h-145l-215 616l-174 543l-172 -541l-215 -618h-148l-508 1438h162l418 -1241l418 1241h90l418 -1241l420 1241h159z" />
    <glyph glyph-name="wcircumflex" unicode="&#x175;" horiz-adv-x="1705" 
d="M1186 1165h-139l-189 172l-190 -172h-140v13l283 264h94l281 -264v-13zM907 1012l287 -862l285 862h151l-356 -1014h-156l-149 408l-115 382l-117 -385l-149 -405h-156l-358 1014h151l287 -862l287 862h108z" />
    <glyph glyph-name="Ycircumflex" unicode="&#x176;" horiz-adv-x="1357" 
d="M1012 1597h-140l-188 170l-186 -170h-140v13l281 262h92l281 -262v-13zM1309 1434v-4l-559 -852v-578h-144v578l-551 852v4h166l457 -717l463 717h168z" />
    <glyph glyph-name="ycircumflex" unicode="&#x177;" horiz-adv-x="1114" 
d="M874 1171h-135l-184 168l-184 -168h-135v15l276 254h90l272 -254v-15zM1055 1012l-641 -1495h-150l213 495l-405 1000h153l328 -850l115 291l235 559h152z" />
    <glyph glyph-name="Ydieresis" unicode="&#x178;" horiz-adv-x="1357" 
d="M813 1655q0 53 43 75t86 0t43 -75t-43 -76t-86 0t-43 76zM379 1655q0 53 43 75t86 0t43 -75t-43 -76t-86 0t-43 76zM1309 1434v-4l-559 -852v-578h-144v578l-551 852v4h166l457 -717l463 717h168z" />
    <glyph glyph-name="Zacute" unicode="&#x179;" horiz-adv-x="1220" 
d="M807 1855v-4l-193 -258h-125v9l154 253h164zM125 1434h1016v-62l-891 -1233h891v-139h-1096v74l877 1226h-797v134z" />
    <glyph glyph-name="zacute" unicode="&#x17a;" horiz-adv-x="954" 
d="M686 1434v-4l-180 -242h-117v8l143 238h154zM870 1012v-60l-598 -821h600v-131h-809v51l605 836h-570v125h772z" />
    <glyph glyph-name="Zdotaccent" unicode="&#x17b;" horiz-adv-x="1220" 
d="M522 1677q0 61 48 86t98 0t49 -86q0 -61 -49 -86t-98 0q-48 25 -48 86zM125 1434h1016v-62l-891 -1233h891v-139h-1096v74l877 1226h-797v134z" />
    <glyph glyph-name="zdotaccent" unicode="&#x17c;" horiz-adv-x="954" 
d="M410 1323q0 61 49 86t97 0t48 -86t-48 -86t-97 0t-49 86zM870 1012v-60l-598 -821h600v-131h-809v51l605 836h-570v125h772z" />
    <glyph glyph-name="Zcaron" unicode="&#x17d;" horiz-adv-x="1220" 
d="M289 1878h145l197 -180l200 180h144v-14l-297 -275h-96l-293 275v14zM125 1434h1016v-62l-891 -1233h891v-139h-1096v74l877 1226h-797v134z" />
    <glyph glyph-name="zcaron" unicode="&#x17e;" horiz-adv-x="954" 
d="M193 1434h131l176 -162l182 162h129v-13l-268 -247h-86l-264 247v13zM870 1012v-60l-598 -821h600v-131h-809v51l605 836h-570v125h772z" />
    <glyph glyph-name="longs" unicode="&#x17f;" horiz-adv-x="608" 
d="M408 0h-138v881h-200v120h200v84q0 167 82 263t242 96q117 0 217 -72l-59 -102q-86 51 -156 51q-188 0 -188 -236v-1085z" />
    <glyph glyph-name="florin" unicode="&#x192;" horiz-adv-x="929" 
d="M354 -2v885h-250v118h250v84q0 167 82 263t242 96q117 0 217 -72l-59 -102q-86 51 -156 51q-188 0 -188 -236v-84h323v-118h-323v-885q0 -360 -304 -360q-102 0 -202 71l57 98q67 -49 149 -49q162 0 162 240z" />
    <glyph glyph-name="Aringacute" unicode="&#x1fa;" horiz-adv-x="1536" 
d="M1024 2007v-2l-201 -176h-131v6l160 172h172zM769 1679q-77 0 -107 -45t0 -90t108 -45t110 45t-1 90t-110 45zM1126 471l-188 430l-170 412l-174 -418l-186 -424h718zM756 1774q106 0 170 -45t78 -103t-23 -118t-125 -89l637 -1419h-158l-151 338h-834l-149 -338h-158
l637 1421q-112 41 -136 127t42 156q64 70 170 70z" />
    <glyph glyph-name="aringacute" unicode="&#x1fb;" horiz-adv-x="1298" 
d="M897 1698v-2l-180 -193h-117v6l143 189h154zM768 1273q0 37 -30 65t-90 28t-86 -46q-28 -46 0 -93t87 -47t89 28t30 65zM457 1271q0 81 60 127t142 46q81 0 143 -45t62 -127t-59 -128t-147 -46t-145 46q-56 46 -56 127zM616 901q-164 -1 -274 -111t-111 -285
q0 -175 111 -286t274 -110q106 0 192 44q86 43 128 113q148 239 0 477q-42 70 -128 114t-192 44zM1010 1012h129v-1012h-127v201q-63 -109 -173 -165t-229 -56q-221 0 -368 145q-148 145 -148 379t148 378t370 144q123 0 233 -56t165 -159v201z" />
    <glyph glyph-name="AEacute" unicode="&#x1fc;" horiz-adv-x="1871" 
d="M1237 1855v-4l-193 -258h-124v9l153 253h164zM911 588v342l4 356h-6l-411 -698h413zM1761 0h-850v453h-497l-271 -453h-172l881 1434h887v-134h-688v-512h655v-133h-655v-518h710v-137z" />
    <glyph glyph-name="aeacute" unicode="&#x1fd;" horiz-adv-x="2093" 
d="M1286 1438v-4l-178 -238h-115v8l142 234h151zM1518 907q-158 0 -267 -91t-127 -251h756q-4 164 -104 253t-258 89zM616 899q-164 1 -274 -109t-111 -285q0 -175 111 -285t274 -109q125 0 219 58q175 109 175 335t-175 337q-94 58 -219 58zM1511 113q97 0 193 37t147 102
l95 -82q-72 -90 -192 -139t-245 -49q-268 0 -395 204l-2 -186h-108v199q-64 -109 -170 -164t-226 -55q-219 0 -366 145q-148 145 -148 379t148 378t368 144q123 0 231 -55t165 -160l2 201h110v-193q133 211 395 211q222 0 371 -143q72 -69 106 -183t17 -255h-883
q14 -154 123 -245t264 -91z" />
    <glyph glyph-name="Oslashacute" unicode="&#x1fe;" horiz-adv-x="1665" 
d="M1092 1874v-4l-193 -258h-125v8l154 254h164zM834 1319q-279 0 -431 -176t-149 -430q0 -150 61 -283t177 -213l600 1049q-121 53 -258 53zM834 113q276 0 427 177t152 423q0 313 -211 485l-602 -1044q105 -41 234 -41zM808 1458q208 0 355 -72l101 175h147l-137 -238
q139 -102 212 -264q73 -161 73 -325q-1 -164 -47 -296q-101 -286 -361 -402q-141 -62 -313 -62t-310 55l-108 -187h-148l144 248q-152 98 -231 265t-79 363t78 360t247 273q169 107 377 107z" />
    <glyph glyph-name="oslashacute" unicode="&#x1ff;" horiz-adv-x="1222" 
d="M829 1434v-4l-174 -232h-112v6l139 230h147zM610 115q166 -1 274 107t108 288t-128 293l-395 -664q63 -24 141 -24zM610 903q-164 -1 -272 -113t-107 -298q0 -186 138 -291l397 667q-80 35 -156 35zM610 1030q119 0 224 -47l75 127h138l-113 -188q195 -147 194 -418
q0 -232 -146 -376t-372 -144q-117 0 -213 39l-82 -140h-135l117 197q-203 143 -203 424q0 234 148 380t368 146z" />
    <glyph glyph-name="Scommaaccent" unicode="&#x218;" horiz-adv-x="1351" 
d="M602 -290q0 54 45 77t89 1t44 -68t-33 -124q-33 -77 -47 -120h-94l53 162q-57 18 -57 72zM1255 364q0 -90 -52 -175t-139 -129q-160 -81 -370 -82q-208 -1 -370 77t-240 240l125 67q68 -129 198 -188t282 -59t272 51q69 29 109 86t40 133q0 146 -138 207q-106 46 -252 72
t-210 40q-181 41 -266 112q-109 92 -109 243q-2 106 48 187q86 139 307 190q91 20 190 20q372 0 534 -250l-120 -67q-111 178 -412 182q-150 0 -267 -51q-61 -27 -99 -81q-38 -55 -38 -117q1 -104 70 -156q69 -53 209 -83q51 -11 127 -25t176 -35q100 -22 157 -48
q56 -26 102 -58t74 -70t45 -91q17 -52 17 -142z" />
    <glyph glyph-name="scommaaccent" unicode="&#x219;" horiz-adv-x="1021" 
d="M621 -251q0 -44 -33 -123q-33 -80 -47 -124h-95l54 162q-58 18 -58 72t45 78q45 23 89 1t45 -66zM803 278q0 94 -88 131q-69 28 -172 43t-151 25q-126 26 -204 88t-77 174q0 145 120 220q121 75 287 73q231 0 381 -137l-80 -90q-113 102 -299 102q-120 2 -198 -41
t-76 -123q0 -55 47 -92t97 -49t124 -23q232 -35 288 -71q97 -61 122 -128q16 -46 15 -126t-63 -150q-112 -126 -352 -124q-303 0 -448 196l86 94q119 -160 364 -164q109 0 193 39t84 133z" />
    <glyph glyph-name="uni021A" unicode="&#x21a;" horiz-adv-x="1220" 
d="M514 -268q0 54 44 78q44 23 89 1t45 -68t-33 -124q-33 -77 -47 -121h-94l53 162q-57 18 -57 72zM539 0v1298h-506v136h1155v-136h-506v-1298h-143z" />
    <glyph glyph-name="uni021B" unicode="&#x21b;" horiz-adv-x="802" 
d="M420 -256q0 54 44 78q44 23 89 1t45 -68t-33 -124q-33 -77 -47 -120h-94l53 161q-57 18 -57 72zM416 322q0 -211 156 -211q80 0 163 39l43 -115q-104 -49 -194 -49q-307 -4 -305 336v571h-207v117h207v286l137 15v-301h327v-117h-327v-571z" />
    <glyph glyph-name="dotlessj" unicode="&#x237;" horiz-adv-x="456" 
d="M160 1014h137v-1155q1 -177 -63 -269t-224 -92q-100 0 -192 53l43 113q71 -37 155 -37q84 1 114 59t30 173v1155z" />
    <glyph glyph-name="circumflex" unicode="&#x2c6;" horiz-adv-x="862" 
d="M750 1155h-146l-196 178l-197 -178h-145v14l294 273h97l293 -273v-14z" />
    <glyph glyph-name="caron" unicode="&#x2c7;" horiz-adv-x="827" 
d="M63 1436h146l197 -181l200 181h144v-15l-297 -274h-97l-293 274v15z" />
    <glyph glyph-name="breve" unicode="&#x2d8;" horiz-adv-x="681" 
d="M487 1434h115q4 -127 -70 -196t-200 -69t-201 71q-74 71 -70 194h111q0 -158 158 -158q82 0 120 45q37 45 37 113z" />
    <glyph glyph-name="dotaccent" unicode="&#x2d9;" horiz-adv-x="421" 
d="M92 1352q0 61 48 86t98 0t49 -86q0 -61 -48 -86t-98 0q-49 25 -49 86z" />
    <glyph glyph-name="ring" unicode="&#x2da;" horiz-adv-x="813" 
d="M358 1374q-68 0 -100 -36q-33 -36 -32 -78t33 -79q33 -36 101 -36t100 57q32 56 -1 114t-101 58zM121 1259q0 99 67 154q68 55 162 55t163 -55t69 -154t-67 -157t-167 -58t-164 58q-63 58 -63 157z" />
    <glyph glyph-name="ogonek" unicode="&#x2db;" horiz-adv-x="833" 
d="M539 -236l79 -51q-68 -131 -250 -139q-88 -4 -154 44q-67 48 -79 135t70 165t254 53l30 -75q-127 22 -197 -30t-39 -124q29 -72 129 -67t157 89z" />
    <glyph glyph-name="tilde" unicode="&#x2dc;" horiz-adv-x="688" 
d="M154 1294l-93 37q15 80 71 118t130 24q22 -4 88 -37t108 -30t62 64l92 -36q-16 -84 -71 -120t-125 -22q-20 6 -75 31q-112 52 -153 26q-22 -16 -34 -55z" />
    <glyph glyph-name="hungarumlaut" unicode="&#x2dd;" horiz-adv-x="720" 
d="M362 1436v-4l-182 -242h-127v6l156 240h153zM657 1436v-4l-184 -242h-125v6l156 240h153z" />
    <glyph glyph-name="_375" unicode="&#x394;" horiz-adv-x="1419" 
d="M700 1292l-516 -1163h1030zM782 1434l643 -1434h-1450l643 1434h164z" />
    <glyph glyph-name="_376" unicode="&#x3a9;" horiz-adv-x="1640" 
d="M788 1319q-276 0 -429 -174t-150 -424q0 -209 112 -376t316 -216v-129h-512v129l272 -4q-164 88 -250 247t-86 351q0 309 195 522t532 213q226 0 396 -103t252 -269t82 -360q0 -196 -86 -354t-250 -247l272 4v-129h-512v129q202 49 314 216t114 376q0 250 -152 424
q-154 174 -430 174z" />
    <glyph glyph-name="pi" unicode="&#x3c0;" horiz-adv-x="1390" 
d="M432 0h-135v893h-242v119h1266v-119h-246v-598q0 -113 44 -160t161 -29l6 -110q-178 -35 -263 46t-83 251v600h-508v-893z" />
    <glyph glyph-name="Wgrave" unicode="&#x1e80;" horiz-adv-x="2211" 
d="M866 1843h160l143 -241v-9h-122l-181 246v4zM2148 1434l-508 -1438h-145l-215 616l-174 543l-172 -541l-215 -618h-148l-508 1438h162l418 -1241l418 1241h90l418 -1241l420 1241h159z" />
    <glyph glyph-name="wgrave" unicode="&#x1e81;" horiz-adv-x="1705" 
d="M631 1432h153l140 -222v-6h-119l-174 223v5zM799 1012h108l287 -862l285 862h151l-356 -1014h-156l-149 408l-115 382l-117 -385l-149 -405h-156l-358 1014h151l287 -862z" />
    <glyph glyph-name="Wacute" unicode="&#x1e82;" horiz-adv-x="2211" 
d="M1358 1837v-4l-191 -240h-123v6l152 238h162zM1640 -4h-145l-215 616l-174 543l-172 -541l-215 -618h-148l-508 1438h162l418 -1241l418 1241h90l418 -1241l420 1241h159z" />
    <glyph glyph-name="wacute" unicode="&#x1e83;" horiz-adv-x="1705" 
d="M1057 1434v-2l-170 -228h-109v6l133 224h146zM907 1012l287 -862l285 862h151l-356 -1014h-156l-149 408l-115 382l-117 -385l-149 -405h-156l-358 1014h151l287 -862l287 862h108z" />
    <glyph glyph-name="Wdieresis" unicode="&#x1e84;" horiz-adv-x="2211" 
d="M1245 1694q0 55 45 79t90 0t45 -79t-45 -79t-90 0t-45 79zM788 1694q0 55 46 79t90 0q45 -24 45 -79t-45 -79q-44 -24 -90 0t-46 79zM1640 -4h-145l-215 616l-174 543l-172 -541l-215 -618h-148l-508 1438h162l418 -1241l418 1241h90l418 -1241l420 1241h159z" />
    <glyph glyph-name="wdieresis" unicode="&#x1e85;" horiz-adv-x="1705" 
d="M985 1337q0 55 45 79t90 0t45 -79t-45 -79t-90 0t-45 79zM528 1337q0 55 45 79t91 0t45 -79q0 -55 -45 -79t-91 0q-45 24 -45 79zM907 1012l287 -862l285 862h151l-356 -1014h-156l-149 408l-115 382l-117 -385l-149 -405h-156l-358 1014h151l287 -862l287 862h108z" />
    <glyph glyph-name="Ygrave" unicode="&#x1ef2;" horiz-adv-x="1357" 
d="M459 1837h155l140 -233v-9h-119l-176 238v4zM1309 1434v-4l-559 -852v-578h-144v578l-551 852v4h166l457 -717l463 717h168z" />
    <glyph glyph-name="ygrave" unicode="&#x1ef3;" horiz-adv-x="1114" 
d="M383 1434h149l138 -230v-6h-117l-170 232v4zM903 1012h152l-641 -1495h-150l213 495l-405 1000h153l328 -850l115 291z" />
    <glyph glyph-name="endash" unicode="&#x2013;" horiz-adv-x="1220" 
d="M147 524v125h926v-125h-926z" />
    <glyph glyph-name="emdash" unicode="&#x2014;" horiz-adv-x="1435" 
d="M147 522v125h1141v-125h-1141z" />
    <glyph glyph-name="quoteleft" unicode="&#x2018;" horiz-adv-x="456" 
d="M358 1436l-92 -367h-153l129 367h116z" />
    <glyph glyph-name="quoteright" unicode="&#x2019;" horiz-adv-x="454" 
d="M123 1061l94 375h152l-129 -375h-117z" />
    <glyph glyph-name="quotesinglbase" unicode="&#x201a;" horiz-adv-x="487" 
d="M84 -227l94 374h152l-129 -374h-117z" />
    <glyph glyph-name="quotedblleft" unicode="&#x201c;" horiz-adv-x="745" 
d="M365 1430l-97 -373h-153l133 373h117zM645 1430l-98 -373h-152l133 373h117z" />
    <glyph glyph-name="quotedblright" unicode="&#x201d;" horiz-adv-x="729" 
d="M399 1073l95 363h151l-129 -363h-117zM119 1073l94 363h152l-129 -363h-117z" />
    <glyph glyph-name="quotedblbase" unicode="&#x201e;" horiz-adv-x="751" 
d="M358 -227l95 374h141l-127 -374h-109zM84 -227l94 374h135l-116 -374h-113z" />
    <glyph glyph-name="dagger" unicode="&#x2020;" horiz-adv-x="1146" 
d="M645 1434v-400h432v-129h-432v-1167h-143v1167h-432v129h432v400h143z" />
    <glyph glyph-name="daggerdbl" unicode="&#x2021;" horiz-adv-x="1245" 
d="M694 1434v-398h432v-129h-432v-540h432v-127h-432v-506h-143v506h-432v127h432v540h-432v129h432v398h143z" />
    <glyph glyph-name="bullet" unicode="&#x2022;" horiz-adv-x="798" 
d="M400 367q-93 0 -154 58q-62 57 -62 153t62 154t154 58q94 0 154 -58t60 -153t-60 -154q-61 -58 -154 -58z" />
    <glyph glyph-name="ellipsis" unicode="&#x2026;" horiz-adv-x="1234" 
d="M901 78q0 61 49 86q50 25 98 0t48 -86t-48 -86t-98 0q-49 25 -49 86zM522 78q0 61 48 86t98 0t49 -86q0 -61 -49 -86t-98 0q-48 25 -48 86zM139 78q0 61 49 86q50 25 98 0t48 -86t-48 -86t-98 0q-49 25 -49 86z" />
    <glyph glyph-name="perthousand" unicode="&#x2030;" horiz-adv-x="2295" 
d="M1907 483q-87 0 -137 -55t-50 -130t50 -131t138 -56t138 54q49 54 49 130t-50 132t-138 56zM1907 604q151 0 235 -92t84 -218t-84 -216t-236 -90t-234 90q-83 90 -83 216t83 218t235 92zM584 1121q0 73 -50 127t-136 55q-87 1 -136 -53t-49 -128t49 -127t137 -53t137 53
q48 53 48 126zM1155 483q-88 0 -137 -55t-49 -130t50 -131t138 -56t137 54t49 130t-50 132t-138 56zM1155 604q152 0 236 -92t84 -218t-84 -216t-236 -90q-153 0 -235 90t-82 216t82 218t235 92zM399 1432q150 0 235 -94t85 -219q0 -126 -84 -216t-236 -90q-153 0 -235 90
t-82 216q0 125 84 219t233 94zM231 0l928 1434h148l-926 -1434h-150z" />
    <glyph glyph-name="guilsinglleft" unicode="&#x2039;" horiz-adv-x="628" 
d="M526 1061v-8l-278 -443q33 -51 260 -413l18 -37h-145l-285 450l285 451h145z" />
    <glyph glyph-name="guilsinglright" unicode="&#x203a;" horiz-adv-x="630" 
d="M104 1055h146l285 -449l-285 -452h-146l279 452l-279 443v6z" />
    <glyph glyph-name="fraction" unicode="&#x2044;" horiz-adv-x="305" 
d="M469 1442h131l-770 -1448h-129z" />
    <glyph glyph-name="zerosuperior" unicode="&#x2070;" horiz-adv-x="788" 
d="M88 1239v109q0 124 64 208t152 104q89 20 179 0q89 -18 153 -104t64 -208v-109q0 -104 -45 -180t-113 -111t-148 -35t-148 35t-113 111t-45 180zM205 1348v-109q0 -99 58 -157t129 -59t129 56t59 160v109q0 102 -58 161t-130 59q-71 0 -129 -58t-58 -162z" />
    <glyph glyph-name="foursuperior" unicode="&#x2074;" horiz-adv-x="737" 
d="M453 1190v330l-267 -330h267zM567 1663v-473h99v-103h-99v-157h-114v157h-394l-6 93l383 483h131z" />
    <glyph glyph-name="fivesuperior" unicode="&#x2075;" horiz-adv-x="737" 
d="M621 1663v-104h-408v-166h154q141 1 219 -63t78 -176t-78 -175t-208 -63t-212 50t-84 167h113q2 -111 176 -111t174 131q0 55 -40 95t-138 40h-267v375h521z" />
    <glyph glyph-name="sixsuperior" unicode="&#x2076;" horiz-adv-x="768" 
d="M400 1374q120 0 205 -54t85 -175t-87 -177t-209 -56t-208 56q-86 58 -86 175v289q0 117 84 177t203 60t200 -49t87 -147h-115q-10 90 -176 90t-166 -131v-123q63 65 183 65zM394 1012q73 0 125 30t52 99t-52 101t-123 32t-124 -34t-54 -100t51 -96q52 -32 125 -32z" />
    <glyph glyph-name="sevensuperior" unicode="&#x2077;" horiz-adv-x="645" 
d="M61 1556v107h541l8 -53l-360 -682h-135l338 628h-392z" />
    <glyph glyph-name="eightsuperior" unicode="&#x2078;" horiz-adv-x="782" 
d="M219 1463q0 -56 50 -85q50 -28 122 -28t122 28t51 85q1 56 -53 83t-120 27t-119 -27t-53 -83zM84 1120q0 66 42 114t107 64q-135 46 -135 158t88 164t205 51q117 0 206 -50t89 -163t-135 -160q63 -16 105 -65t42 -121t-48 -123q-81 -86 -259 -88q-125 0 -216 51t-91 168z
M575 1123q0 59 -55 93t-129 34t-129 -34q-55 -33 -55 -93t58 -90q58 -29 126 -29t126 30t58 89z" />
    <glyph glyph-name="ninesuperior" unicode="&#x2079;" horiz-adv-x="768" 
d="M369 1206q-121 0 -205 54t-84 174q0 121 86 178t207 57t208 -58t87 -175v-289q0 -117 -83 -176t-203 -59t-201 48q-81 50 -87 146h115q10 -90 177 -90t167 131v125q-63 -66 -184 -66zM551 1439q0 67 -52 99t-125 31q-73 0 -125 -32q-52 -31 -52 -99t52 -101t123 -33
t125 34t54 101z" />
    <glyph glyph-name="zeroinferior" unicode="&#x2080;" horiz-adv-x="788" 
d="M88 137v107q0 123 64 208t152 104q89 19 179 0q89 -19 153 -104t64 -208v-107q0 -102 -45 -178q-87 -147 -262 -146q-174 1 -260 146q-45 76 -45 178zM205 244v-109q0 -101 58 -157t129 -57t129 55t59 159v109q0 104 -58 162t-130 59q-71 -1 -129 -59t-58 -162z" />
    <glyph glyph-name="oneinferior" unicode="&#x2081;" horiz-adv-x="512" 
d="M78 -176v102h127v498l-111 -29v107l230 53v-629h133v-102h-379z" />
    <glyph glyph-name="twoinferior" unicode="&#x2082;" horiz-adv-x="739" 
d="M207 348h-115q0 119 80 170t201 51t201 -52t81 -181q0 -129 -93 -175q-69 -36 -184 -48q-114 -12 -124 -20q-10 -9 -32 -24t-23 -75v-55h448v-115h-559v172q0 207 279 221q172 8 172 127q0 127 -166 127t-166 -123z" />
    <glyph glyph-name="threeinferior" unicode="&#x2083;" horiz-adv-x="741" 
d="M371 154h-113v100h104q164 0 164 104q0 41 -42 75t-114 34t-122 -27q-51 -27 -53 -92h-105q0 111 80 165t195 54t197 -54t81 -155q0 -57 -31 -99t-84 -56q62 -15 96 -63t33 -99q0 -123 -85 -176t-207 -53q-121 0 -203 53t-84 170h121q4 -115 172 -115t168 121
q0 41 -42 77t-126 36z" />
    <glyph glyph-name="fourinferior" unicode="&#x2084;" horiz-adv-x="729" 
d="M453 84v360l-267 -360h267zM567 557v-473h86v-109h-86v-151h-114v151h-394l-6 97l355 485h159z" />
    <glyph glyph-name="fiveinferior" unicode="&#x2085;" horiz-adv-x="737" 
d="M623 557v-104h-408v-166h154q141 1 219 -63t78 -175t-78 -175t-208 -64q-292 1 -296 217h113q2 -111 176 -111t174 131q0 55 -40 95t-138 40h-267v375h521z" />
    <glyph glyph-name="sixinferior" unicode="&#x2086;" horiz-adv-x="765" 
d="M398 274q120 0 205 -54t85 -175t-87 -178t-208 -57t-208 58t-87 175v289q0 117 83 176t203 59t201 -49t87 -145h-115q-10 90 -176 90t-166 -131v-123q63 65 183 65zM392 -88q73 0 125 31t52 99t-52 100t-123 32t-124 -34t-54 -100t51 -96q52 -32 125 -32z" />
    <glyph glyph-name="seveninferior" unicode="&#x2087;" horiz-adv-x="645" 
d="M61 451v106h541l8 -51l-360 -682h-135l338 627h-392z" />
    <glyph glyph-name="eightinferior" unicode="&#x2088;" horiz-adv-x="782" 
d="M219 373q0 -57 49 -85t123 -28t123 28t49 85t-54 84t-119 27t-118 -28q-53 -26 -53 -83zM84 29q0 67 42 115t107 65q-135 45 -135 157t88 162q88 52 205 52t205 -50t88 -164t-133 -157q63 -15 105 -65t42 -115q0 -115 -90 -166t-216 -51t-217 51t-91 166zM207 34
q0 -60 58 -90t126 -30t126 30t58 89t-56 92t-129 33t-128 -32t-55 -92z" />
    <glyph glyph-name="nineinferior" unicode="&#x2089;" horiz-adv-x="763" 
d="M367 104q-121 0 -205 54t-84 174q0 121 86 178t207 57t208 -58t87 -175v-289q0 -117 -83 -176t-203 -59t-201 49t-87 145h115q10 -90 177 -90t167 131v125q-63 -66 -184 -66zM549 338q0 66 -52 98t-125 31q-73 0 -125 -32q-52 -31 -52 -99t52 -100t123 -33q71 0 125 34
q54 35 54 101z" />
    <glyph glyph-name="Euro" unicode="&#x20ac;" horiz-adv-x="1249" 
d="M915 -20q-588 0 -696 552h-133v119h117q-2 13 -2 57t2 64h-117v117h135q43 251 219 407t475 156q109 0 209 -31l-39 -118q-76 23 -170 22q-239 0 -371 -106t-182 -330h541l-31 -117h-536q-2 -18 -2 -62t2 -59h508l-27 -119h-457q84 -418 555 -417q107 0 213 39l41 -129
q-129 -45 -254 -45z" />
    <glyph glyph-name="afii61289" unicode="&#x2113;" horiz-adv-x="823" 
d="M538 1358q-64 0 -94 -71q-32 -71 -32 -145t-1 -250q-1 -177 -1 -255q219 252 245 450q5 57 9 117t-29 106q-33 48 -97 48zM418 301q0 -90 76 -126t190 -9v-141q-207 -68 -340 4t-133 305l-100 -49l-29 94q70 29 127 61v682q0 186 70 264t249 78q276 0 226 -395
q-35 -299 -336 -573v-195z" />
    <glyph glyph-name="uni2117" unicode="&#x2117;" horiz-adv-x="1703" 
d="M719 979v-297h223q80 0 121 57t27 125t-74 97q-33 18 -68 18h-229zM719 575v-258h-123v777h352q70 0 126 -29t87 -75q103 -153 4 -311q-29 -46 -87 -75t-134 -29h-225zM246 715q0 -275 162 -453t444 -178t446 179q162 179 162 451t-163 452t-445 180t-444 -178t-162 -453
zM853 1462q343 0 541 -215t198 -532t-198 -533q-198 -215 -541 -215t-542 215q-199 214 -199 532t199 533t542 215z" />
    <glyph glyph-name="trademark" unicode="&#x2122;" horiz-adv-x="1619" 
d="M793 860v574h94l235 -301l238 301h90v-574h-100v412l-222 -268h-18l-217 272v-416h-100zM354 860v486h-227v88h559v-88h-231v-486h-101z" />
    <glyph glyph-name="Omega" unicode="&#x2126;" horiz-adv-x="1681" 
d="M840 1319q-276 0 -429 -174t-151 -424q0 -209 112 -376t316 -216v-129h-512v129l273 -4q-164 88 -250 247t-86 351q0 309 194 522q195 213 533 213q227 0 396 -103t251 -269t82 -360q0 -196 -86 -354t-250 -247l272 4v-129h-512v129q203 49 315 216t112 397t-151 403
q-153 174 -429 174z" />
    <glyph glyph-name="estimated" unicode="&#x212e;" horiz-adv-x="1323" 
d="M677 1104q-179 0 -288 -94v-375h580v381q-113 88 -292 88zM678 -14q-238 0 -394 160t-155 448q0 290 155 448t394 158t394 -143q79 -74 117 -206t23 -312h-823v-349q119 -109 289 -108q256 0 389 190l76 -59q-89 -125 -201 -176t-264 -51z" />
    <glyph glyph-name="onethird" unicode="&#x2153;" horiz-adv-x="1533" 
d="M1020 1442h135l-770 -1448h-133zM1169 334h-114v100h106q162 0 164 105q0 41 -43 75q-44 34 -114 33q-170 0 -175 -119h-106q0 111 81 165q80 55 194 55t196 -54t82 -155q0 -57 -31 -99t-82 -57q59 -15 94 -63t35 -99q0 -123 -85 -176t-208 -53t-204 53t-82 170h120
q4 -113 171 -113t167 119q0 41 -41 77t-125 36zM104 719v102h129v498l-112 -27v105l231 55v-631h133v-102h-381z" />
    <glyph glyph-name="twothirds" unicode="&#x2154;" horiz-adv-x="1695" 
d="M221 1231h-112q0 117 78 167q79 50 198 50t198 -52t79 -178t-92 -171q-76 -40 -236 -53q-70 -6 -88 -26q-33 -36 -33 -85v-56h440v-112h-549v170q0 203 275 217q168 8 168 125q0 125 -163 125t-163 -121zM1180 1442h137l-772 -1448h-133zM1329 334h-115v100h107
q164 0 164 105q0 41 -43 75q-44 34 -114 33q-172 0 -175 -119h-106q0 111 80 165q81 55 195 55t197 -54t83 -155q0 -57 -31 -99t-84 -57q59 -15 94 -63t35 -99q0 -123 -85 -176t-208 -53t-204 53t-83 170h121q4 -113 172 -113t168 119q0 41 -42 77t-126 36z" />
    <glyph glyph-name="oneeighth" unicode="&#x215b;" horiz-adv-x="1587" 
d="M1200 432q74 0 123 28t49 85t-54 84t-120 27t-119 -28q-53 -26 -52 -83t50 -85t123 -28zM905 538q0 112 88 162q88 52 206 52t206 -50t88 -164t-135 -157q66 -17 108 -67t41 -113q0 -115 -91 -166t-217 -51t-216 51t-92 166q0 65 42 113t109 67q-137 45 -137 157z
M1016 206q0 -60 57 -90t125 -30t126 30t59 89t-55 92t-129 33t-128 -32t-55 -92zM1020 1442h135l-770 -1448h-133zM104 719v102h129v498l-112 -27v105l233 55v-631h131v-102h-381z" />
    <glyph glyph-name="threeeighths" unicode="&#x215c;" horiz-adv-x="1708" 
d="M383 1032h-113v101h105q164 0 164 106q0 41 -42 75q-43 34 -113 34t-122 -27t-53 -92h-107q0 111 80 164t195 53t197 -54t81 -165q0 -111 -112 -146q59 -16 94 -63t35 -96q0 -122 -85 -176t-208 -54t-205 53t-84 170h121q4 -115 172 -115t168 122q0 42 -42 76t-126 34z
M1319 432q74 0 123 28t51 85q0 57 -54 84t-120 27t-119 -28q-53 -26 -52 -83t49 -85t122 -28zM1012 201q0 65 42 113t109 67q-137 45 -137 157t88 162q88 52 206 52t206 -50t88 -164t-135 -157q65 -17 107 -67t42 -113q0 -115 -91 -166t-217 -51t-217 51t-91 166zM1319 86
q68 0 126 30t59 89t-55 92t-129 33t-128 -32t-56 -92t57 -90t126 -30zM1155 1442h135l-770 -1448h-133z" />
    <glyph glyph-name="fiveeighths" unicode="&#x215d;" horiz-adv-x="1714" 
d="M633 1438v-107h-408v-164h154q141 0 219 -63t78 -175t-78 -175q-78 -64 -208 -64t-212 50t-84 167h113q0 -111 175 -111t175 132q0 55 -41 95t-137 40h-268v375h522zM1325 432q74 0 123 28t51 85q0 57 -54 84q-55 27 -119 27t-119 -27q-54 -27 -53 -84t49 -85t122 -28z
M1018 201q0 65 42 113t109 67q-137 45 -137 157t88 162q88 52 206 52t206 -50t88 -164t-135 -157q65 -17 107 -67t42 -113q0 -115 -91 -166t-217 -51t-217 51t-91 166zM1325 86q68 0 126 30t59 89t-55 92t-129 33t-128 -32t-56 -92t57 -90t126 -30zM1161 1442h135
l-770 -1448h-133z" />
    <glyph glyph-name="seveneighths" unicode="&#x215e;" horiz-adv-x="1546" 
d="M84 1329v107h539l8 -52l-361 -682h-135l338 627h-389zM1157 432q74 0 123 28t51 85q0 57 -54 84q-55 27 -119 27t-119 -27q-54 -27 -53 -84t49 -85t122 -28zM850 201q0 65 42 113t109 67q-137 45 -137 157t88 162q88 52 206 52t206 -50t88 -164t-135 -157q65 -17 107 -67
t42 -113q0 -115 -91 -166t-217 -51t-217 51t-91 166zM1157 86q68 0 126 30t59 89t-55 92t-129 33t-128 -32t-56 -92t57 -90t126 -30zM987 1442h135l-770 -1448h-133z" />
    <glyph glyph-name="arrowleft" unicode="&#x2190;" horiz-adv-x="1294" 
d="M1167 782v-131h-864l297 -305l-76 -72l-444 445l444 444l78 -76l-301 -305h866z" />
    <glyph glyph-name="arrowup" unicode="&#x2191;" horiz-adv-x="1021" 
d="M573 180h-131v864l-305 -296l-71 75l444 445l444 -447l-75 -76l-306 302v-867z" />
    <glyph glyph-name="arrowright" unicode="&#x2192;" horiz-adv-x="1294" 
d="M127 655v129h864l-297 308l76 71l444 -444l-444 -445l-78 74l301 307h-866z" />
    <glyph glyph-name="arrowdown" unicode="&#x2193;" horiz-adv-x="1024" 
d="M449 1243h129v-866l307 299l71 -76l-444 -444l-444 444l73 78l308 -301v866z" />
    <glyph glyph-name="uni2196" unicode="&#x2196;" horiz-adv-x="1030" 
d="M135 1102h631l2 -109l-430 -2l612 -612l-92 -94l-610 612l-6 -426l-107 2v629z" />
    <glyph glyph-name="uni2197" unicode="&#x2197;" horiz-adv-x="1030" 
d="M897 1102l-2 -629l-107 -2q0 282 -4 426l-610 -612l-94 94l612 612l-428 6l2 105h631z" />
    <glyph glyph-name="uni2198" unicode="&#x2198;" horiz-adv-x="1122" 
d="M911 330h-628l-2 104l428 6l-613 613l92 94l613 -612l2 426l108 -3v-628z" />
    <glyph glyph-name="uni2199" unicode="&#x2199;" horiz-adv-x="1122" 
d="M211 330v628l108 3q0 -246 5 -426l610 612l92 -94l-612 -613l428 -6l-2 -104h-629z" />
    <glyph glyph-name="partialdiff" unicode="&#x2202;" horiz-adv-x="1239" 
d="M614 -23q-244 0 -381 151q-137 152 -137 356t129 353q130 148 353 156t372 -139q-55 164 -219 291t-342 170l33 117q342 -98 527 -330t188 -586q5 -240 -137 -390t-386 -149zM238 489q0 -157 100 -271t279 -114t280 115q100 115 100 271t-100 269q-99 113 -279 113
t-280 -114t-100 -269z" />
    <glyph glyph-name="Delta" unicode="&#x2206;" horiz-adv-x="1560" 
d="M780 1292l-516 -1163h1030zM862 1434l643 -1434h-1450l643 1434h164z" />
    <glyph glyph-name="product" unicode="&#x220f;" horiz-adv-x="1402" 
d="M1210 -387h-151v1683h-715v-1683h-151v1821h1017v-1821z" />
    <glyph glyph-name="summation" unicode="&#x2211;" horiz-adv-x="1187" 
d="M1077 135v-135h-1003v74l473 678l-438 620v62h956v-129h-746l388 -555l-437 -615h807z" />
    <glyph glyph-name="minus" unicode="&#x2212;" horiz-adv-x="1083" 
d="M154 612v125h776v-125h-776z" />
    <glyph glyph-name="uni2215" unicode="&#x2215;" horiz-adv-x="886" 
d="M758 1442h131l-770 -1448h-129z" />
    <glyph glyph-name="uni2219" unicode="&#x2219;" horiz-adv-x="491" 
d="M145 637q1 61 51 87t100 0t50 -87t-50 -87t-100 0t-51 87z" />
    <glyph glyph-name="radical" unicode="&#x221a;" horiz-adv-x="1259" 
d="M1231 1430l-486 -1430h-129l-342 723l-188 -82l-43 102l330 146l313 -717l440 1286z" />
    <glyph glyph-name="infinity" unicode="&#x221e;" horiz-adv-x="1624" 
d="M1169 872q-53 0 -82 -16q-28 -16 -37 -20q-8 -4 -26 -20t-24 -19t-24 -23t-22 -24t-23 -26t-22 -24l-30 -34q12 -10 25 -26t38 -42q25 -27 34 -35q9 -7 32 -29q75 -70 171 -70q96 1 155 62q58 62 58 144t-60 142t-163 60zM459 463q51 -1 102 27t76 53t55 57t41 45
q12 14 19 21l-33 41q-43 51 -75 81t-82 58q-50 27 -103 26q-111 0 -170 -68t-51 -151q8 -82 66 -135t155 -55zM464 989q161 0 351 -231q190 231 348 231t250 -96t93 -226q1 -129 -87 -225t-248 -98q-98 0 -183 60t-173 167q-88 -107 -173 -167t-187 -60q-160 2 -248 97
t-87 225t92 227q91 96 252 96z" />
    <glyph glyph-name="integral" unicode="&#x222b;" horiz-adv-x="933" 
d="M381 -2v1087q0 167 82 263t242 96q117 0 217 -72l-60 -102q-86 51 -155 51q-188 0 -189 -236v-1087q0 -360 -303 -360q-102 0 -203 71l58 98q68 -49 150 -49q162 0 161 240z" />
    <glyph glyph-name="approxequal" unicode="&#x2248;" horiz-adv-x="1159" 
d="M248 352l-92 62q51 82 129 116t174 5l250 -89q145 -45 200 70l97 -53q-96 -211 -314 -131l-248 88q-97 42 -160 -26q-16 -15 -36 -42zM248 756l-92 61q109 176 303 121l250 -86q145 -45 200 68l97 -52q-88 -197 -314 -133l-248 90q-116 37 -196 -69z" />
    <glyph glyph-name="notequal" unicode="&#x2260;" horiz-adv-x="1132" 
d="M147 387v115h283l178 286h-461v115h541l90 144l72 -41l-66 -103h197v-115h-276l-177 -286h453v-115h-532l-93 -151l-71 43l65 108h-203z" />
    <glyph glyph-name="lessequal" unicode="&#x2264;" horiz-adv-x="925" 
d="M166 817v68l496 344l71 -92l-424 -285l430 -305l-77 -90zM154 195v112h618v-112h-618z" />
    <glyph glyph-name="greaterequal" unicode="&#x2265;" horiz-adv-x="923" 
d="M760 885v-68l-496 -360l-78 90l428 305l-421 285l69 92zM770 309v-114h-616v114h616z" />
    <glyph glyph-name="lozenge" unicode="&#x25ca;" horiz-adv-x="1155" 
d="M240 719l335 -569l355 569l-355 569zM1081 721l-448 -707h-113l-442 707l442 704h113z" />
    <glyph glyph-name="fi" unicode="&#xfb01;" horiz-adv-x="1173" 
d="M852 1329q0 61 49 86t97 0t48 -86t-48 -86t-97 0t-49 86zM1016 1016v-1016h-137v1016h137zM596 1321q-188 0 -188 -236v-84h311v-118h-311v-883h-138v883h-200v118h200v84q0 167 82 263t242 96q94 0 172 -45l-45 -109q-55 31 -125 31z" />
    <glyph glyph-name="fl" unicode="&#xfb02;" horiz-adv-x="1173" 
d="M862 1434h137v-1434h-137v1434zM590 1325q-182 0 -182 -240v-84h290v-118h-290v-883h-138v883h-200v118h200v84q0 167 82 263t242 96q76 0 137 -27l-24 -119q-53 27 -117 27z" />
    <glyph glyph-name="CR" horiz-adv-x="659" 
 />
    <glyph glyph-name="_0004" horiz-adv-x="0" 
 />
    <glyph glyph-name="g.alt" horiz-adv-x="1302" 
d="M1014 -33v223q-63 -106 -171 -158t-231 -52q-221 0 -368 143q-148 143 -148 379t148 380t370 144q123 0 235 -56t167 -159v201h127v-1045q-1 -253 -143 -371t-358 -118t-347 97t-145 275h131q33 -244 356 -243q377 0 377 360zM621 899q-164 1 -275 -109
q-110 -110 -110 -287t110 -285t275 -107q106 0 190 43q84 42 127 112q148 239 0 477q-43 70 -127 113t-190 43z" />
    <glyph glyph-name="gcircumflex.alt" horiz-adv-x="1302" 
d="M1010 -33v223q-64 -106 -170 -158t-228 -52q-221 0 -368 143q-148 143 -148 379t148 380t370 144q123 0 233 -56t165 -159v201h131v-1045q-1 -253 -145 -371t-359 -118t-346 97t-146 275h132q33 -244 354 -243q377 0 377 360zM621 899q-164 1 -275 -109
q-110 -110 -110 -287t110 -285t275 -107q123 0 214 58q173 110 173 335t-173 337q-91 58 -214 58zM999 1178h-141l-201 178l-198 -178h-142v14l293 272h97l292 -272v-14z" />
    <glyph glyph-name="gbreve.alt" horiz-adv-x="1302" 
d="M1010 -33v223q-64 -106 -170 -158t-228 -52q-221 0 -368 143q-148 143 -148 379t148 380t370 144q123 0 233 -56t165 -159v201h131v-1045q-1 -253 -145 -371t-359 -118t-347 97t-145 275h132q33 -244 354 -243q377 0 377 360zM621 899q-164 1 -275 -109
q-110 -110 -110 -287t110 -285t275 -107q106 0 190 43q84 42 127 112q148 239 0 477q-43 70 -127 113t-190 43zM819 1446h115q2 -119 -69 -189q-71 -69 -195 -73t-202 66q-79 70 -77 196h113q0 -66 37 -111t121 -45t120 45t37 111z" />
    <glyph glyph-name="gdotaccent.alt" horiz-adv-x="1302" 
d="M1010 -33v223q-64 -106 -170 -158t-228 -52q-221 0 -368 143q-148 143 -148 379t148 380t370 144q123 0 233 -56t165 -159v201h131v-1045q-1 -253 -145 -371t-359 -118t-346 97t-146 275h132q33 -244 354 -243q377 0 377 360zM621 899q-164 1 -275 -109
q-110 -110 -110 -287t110 -285t275 -107q123 0 214 58q173 110 173 335t-173 337q-91 58 -214 58zM557 1359q0 60 49 85t97 0q49 -25 49 -85t-48 -85t-98 0q-49 25 -49 85z" />
    <glyph glyph-name="gcommaaccent.alt" horiz-adv-x="1302" 
d="M1010 -33v223q-64 -106 -170 -158t-228 -52q-221 0 -368 143q-148 143 -148 379t148 380t370 144q123 0 233 -56t165 -159v201h131v-1045q-1 -253 -145 -371t-359 -118t-346 97t-146 275h132q33 -244 354 -243q377 0 377 360zM621 899q-164 1 -275 -109
q-110 -110 -110 -287t110 -285t275 -107q123 0 214 58q173 110 173 335t-173 337q-91 58 -214 58zM739 1278q0 -62 -48 -86q-48 -25 -96 1t-48 73t34 123q34 75 48 118h100l-49 -149q59 -18 59 -80z" />
    <glyph glyph-name="commaaccent" horiz-adv-x="946" 
d="M379 -283q0 8 4 17q8 51 55 69q47 19 91 -7t44 -73t-36 -134q-36 -88 -52 -134h-102l57 178q-61 18 -61 84z" />
    <glyph glyph-name="commaaccent.alt" horiz-adv-x="946" 
d="M555 1358q0 -8 -4 -17q-6 -51 -53 -69q-46 -18 -92 8t-46 70q0 45 38 135q38 89 53 135h100l-57 -178q61 -18 61 -84z" />
    <glyph glyph-name="zero.tf" 
d="M139 561v311q0 186 84 322q160 260 483 260t482 -259q84 -136 84 -323v-311q0 -186 -84 -322q-84 -135 -210 -197t-272 -62t-272 61t-211 197q-84 136 -84 323zM279 874v-315q0 -143 63 -247q120 -199 361 -199q242 0 364 198q63 104 63 248v315q0 142 -63 246
q-120 198 -361 200q-242 2 -364 -198q-63 -105 -63 -248z" />
    <glyph glyph-name="one.tf" 
d="M305 0v117h361v1163l-328 -78v119l461 113v-1317h358v-117h-852z" />
    <glyph glyph-name="two.tf" 
d="M297 1044h-141q2 90 37 162t89 117q155 129 435 129q143 0 262 -38t205 -137t86 -231q0 -241 -168 -336q-168 -96 -359 -96q-460 0 -460 -276v-205h979v-133h-1112v336q0 115 48 198q80 138 311 188q93 19 197 19t192 23q89 22 164 90t75 172q0 156 -126 228t-290 74
q-164 1 -281 -53q-66 -29 -104 -89t-39 -142z" />
    <glyph glyph-name="three.tf" 
d="M713 674h-236v121h225q180 1 291 79t112 187t-103 191t-293 81q-97 0 -181 -18q-84 -19 -154 -81t-71 -163h-139q0 288 353 363q89 18 190 18q242 0 384 -108t144 -285q0 -115 -75 -206t-193 -116q129 -27 213 -117t84 -221q0 -193 -151 -305t-419 -112t-427 120
q-56 43 -91 115t-35 162h138q2 -266 432 -266q190 0 303 80q112 81 112 197t-107 200t-306 84z" />
    <glyph glyph-name="four.tf" 
d="M969 444v824l-711 -824h711zM1102 1434v-990h168v-120h-168v-324h-133v324h-854l-25 110l852 1000h160z" />
    <glyph glyph-name="five.tf" 
d="M1200 1434v-131h-872v-420h424q264 0 396 -121t132 -320q0 -198 -148 -326t-392 -128t-399 86q-83 45 -132 129t-49 200h139q0 -86 39 -146q91 -140 402 -140q176 0 288 91t111 234q1 142 -95 226t-292 84h-559v682h1007z" />
    <glyph glyph-name="six.tf" 
d="M736 756q-169 0 -301 -85t-134 -237q0 -111 69 -185q123 -134 362 -134t358 132q68 75 67 185q0 166 -126 245t-295 79zM299 1040v-346q67 94 187 142t238 47q118 0 215 -25t180 -75t132 -140q49 -89 49 -227t-87 -243t-211 -148t-271 -43t-273 44t-213 150t-87 260v604
q0 199 164 308q164 108 396 108t386 -90q156 -90 164 -272h-148q-8 115 -121 174t-284 59q-225 0 -348 -123q-68 -68 -68 -164z" />
    <glyph glyph-name="seven.tf" 
d="M195 1294v140h1046l14 -105l-743 -1329h-162l731 1294h-886z" />
    <glyph glyph-name="eight.tf" 
d="M276 1055q0 -85 74 -147q130 -110 356 -108q226 1 356 108q75 62 75 157q0 143 -125 210t-302 67t-299 -62q-135 -67 -135 -225zM705 1462q151 0 273 -35t211 -129t89 -222t-78 -212t-203 -125q127 -33 216 -129t89 -215q1 -232 -176 -329t-420 -97t-415 92
q-186 102 -184 336q1 121 87 215t212 127q-270 96 -271 324q0 141 87 234t210 129t273 36zM332 561q-82 -70 -82 -170t70 -169q129 -128 387 -128q184 0 318 75t136 220q0 100 -81 170q-140 121 -373 121q-234 0 -375 -119z" />
    <glyph glyph-name="nine.tf" 
d="M1043 1189q-123 134 -361 134t-358 -132q-68 -75 -68 -185q0 -166 126 -245t295 -79t301 85t134 237q0 111 -69 185zM1118 397v346q-66 -94 -188 -141t-240 -47q-228 0 -396 99q-181 108 -181 368q0 138 87 243t211 148t271 43t273 -44t213 -150t87 -261v-604
q-1 -199 -167 -309t-394 -108q-325 0 -475 157q-80 84 -86 207h148q7 -115 123 -175t288 -60q228 0 356 123q70 69 70 165z" />
    <glyph glyph-name="Euro.tf" 
d="M999 -20q-305 0 -478 145t-224 407h-133v121h117q-2 13 -2 55t2 62h-117v121h135q43 253 221 407t479 154q106 0 207 -31l-39 -127q-76 23 -168 23q-459 0 -548 -426h536l-33 -121h-530q-2 -18 -2 -60t2 -57h502l-27 -121h-450q39 -198 177 -306t373 -107q105 0 211 39
l41 -135q-121 -43 -252 -43z" />
    <glyph glyph-name="cent.tf" 
d="M846 -166h-131v148q-203 24 -331 160t-128 350t128 354q128 139 331 166v129h131v-129q180 -23 307 -148l-88 -88q-121 115 -285 115q-164 -1 -276 -107t-111 -289q0 -183 111 -287q110 -104 274 -104t285 121l90 -98q-131 -129 -307 -147v-146z" />
    <glyph glyph-name="sterling.tf" 
d="M414 1024q0 -68 49 -293h504v-123h-480q49 -297 -151 -471h913v-137h-1087v133q135 121 172 232t14 243h-186v123h157q-49 188 -49 293q0 204 138 314t353 110q214 0 344 -91t132 -294h-131q-8 256 -338 256q-164 0 -259 -78t-95 -217z" />
    <glyph glyph-name="florin.tf" 
d="M608 -2v883h-295v120h295v99q0 168 82 263t242 95q115 0 215 -72l-60 -102q-86 51 -155 51q-188 0 -189 -235v-99h359v-120h-359v-883q0 -360 -303 -360q-102 0 -202 71l59 98q66 -49 141 -49q170 0 170 240z" />
    <glyph glyph-name="yen.tf" 
d="M1087 444v-112h-313v-332h-143v332h-322v112h322v123h-322v113h254l-483 750v4h166l456 -721l463 721h168v-4l-491 -750h245v-113h-313v-123h313z" />
    <glyph glyph-name="dollar.tf" 
d="M698 1315q-139 1 -266 -63t-126 -198t172 -189q74 -23 255 -55t280 -66q98 -34 129 -58q32 -24 72 -63t59 -110t19 -122q0 -129 -80 -221q-145 -167 -430 -180v-199h-133v197q-176 10 -322 83t-216 214l135 61q53 -111 186 -165t256 -54t215 23q92 22 165 84t73 157
q0 55 -26 101q-25 46 -63 72q-70 52 -219 84q-51 12 -135 26q-286 50 -370 101q-114 69 -148 156q-20 54 -22 124q-2 182 144 280t347 113v199h133v-199q344 -27 463 -254l-125 -66q-49 92 -166 140t-256 47z" />
    <glyph glyph-name="zero.denom" horiz-adv-x="802" 
d="M88 305v117q0 90 35 160t90 106q188 121 377 -3q55 -37 90 -107t35 -158v-113q0 -90 -35 -160q-35 -71 -90 -107q-188 -124 -377 0q-55 36 -90 106t-35 159zM205 418v-109q0 -100 61 -157q61 -56 134 -58q72 -2 134 56t62 159v109q0 102 -61 162t-135 59t-134 -59
q-61 -58 -61 -162z" />
    <glyph glyph-name="one.denom" horiz-adv-x="522" 
d="M72 0v98h145v502l-113 -29v107l228 53v-633h135v-98h-395z" />
    <glyph glyph-name="two.denom" horiz-adv-x="741" 
d="M207 524h-115q0 119 80 170t201 51t201 -52t81 -180q0 -128 -93 -176q-69 -36 -147 -44q-77 -8 -84 -9t-39 -5q-32 -3 -40 -11t-30 -23t-23 -75v-55h448v-115h-559v172q0 207 279 221q172 8 172 127q0 127 -166 127t-166 -123z" />
    <glyph glyph-name="three.denom" horiz-adv-x="741" 
d="M371 332h-115v100h106q164 0 164 107q0 41 -42 73t-122 33q-164 0 -167 -117h-107q0 109 81 163t195 54t195 -54q82 -54 84 -154q0 -57 -31 -99t-84 -57q58 -15 94 -63t35 -97q0 -123 -85 -177t-207 -54q-121 0 -203 54t-84 169h121q4 -115 172 -115t168 121q0 43 -41 78
t-127 35z" />
    <glyph glyph-name="four.denom" horiz-adv-x="741" 
d="M455 262v361l-267 -361h267zM569 735v-473h97v-108h-97v-152h-114v152h-394l-6 96l355 485h159z" />
    <glyph glyph-name="five.denom" horiz-adv-x="737" 
d="M621 735v-106h-408v-166h154q141 1 219 -63t78 -175t-78 -175t-208 -64t-212 51t-84 168h113q2 -111 176 -111t174 131q0 55 -40 95t-138 40h-267v375h521z" />
    <glyph glyph-name="six.denom" horiz-adv-x="765" 
d="M398 453q120 -1 205 -55t85 -175t-87 -177t-209 -56t-208 57t-86 174v289q0 117 84 177q84 61 203 61t200 -50t87 -147h-115q-10 90 -176 90t-166 -131v-123q63 66 183 66zM392 90q73 0 125 31t52 99t-52 100t-123 32t-124 -34t-54 -100t51 -96q52 -32 125 -32z" />
    <glyph glyph-name="seven.denom" horiz-adv-x="641" 
d="M59 629v106h541l8 -53l-360 -682h-135l338 629h-392z" />
    <glyph glyph-name="eight.denom" horiz-adv-x="784" 
d="M391 432q74 0 123 28t51 85q0 57 -54 84q-55 27 -119 27t-119 -27q-54 -27 -53 -84t49 -85t122 -28zM84 201q0 65 43 113t109 65q-138 45 -138 157t88 164t206 52t206 -50t88 -164q0 -112 -135 -159q63 -15 106 -65t43 -113q0 -115 -92 -167t-217 -51t-216 52t-91 166z
M391 84q68 0 126 30q57 30 59 90t-54 93t-130 33q-73 0 -128 -32t-56 -92t57 -91t126 -31z" />
    <glyph glyph-name="nine.denom" horiz-adv-x="768" 
d="M368 281q-120 0 -204 54t-84 175t86 178t207 57t208 -58t87 -175v-289q0 -117 -83 -176t-203 -59t-201 49t-87 145h115q10 -90 177 -90t167 131v123q-65 -65 -185 -65zM551 514q0 66 -52 98t-125 31q-73 0 -125 -31q-52 -30 -52 -98t52 -100t123 -33q71 0 125 34
q54 33 54 99z" />
    <glyph glyph-name="zero.num" horiz-adv-x="788" 
d="M88 1022v108q0 123 64 208q64 84 152 104q89 20 179 1q89 -19 153 -105t64 -208v-108q0 -104 -45 -180t-113 -111t-148 -35t-148 35t-113 111t-45 180zM205 1130v-108q0 -100 58 -158t129 -58q71 -1 129 56t59 160v108q0 102 -58 162t-130 60q-71 0 -129 -59t-58 -163z
" />
    <glyph glyph-name="one.num" horiz-adv-x="516" 
d="M78 721v102h129v498l-113 -27v107l232 53v-631h133v-102h-381z" />
    <glyph glyph-name="two.num" horiz-adv-x="741" 
d="M207 1225h-115q0 119 80 170t201 51t201 -52t81 -180q0 -128 -93 -177q-65 -34 -144 -43q-80 -9 -87 -10t-39 -5t-40 -11t-30 -23t-23 -75v-55h448v-115h-559v172q0 207 279 222q172 8 172 127q0 127 -166 127t-166 -123z" />
    <glyph glyph-name="three.num" horiz-adv-x="741" 
d="M371 1038h-115v101h106q162 0 164 106q0 41 -43 74t-113 33t-122 -27q-51 -27 -53 -90h-107q0 109 81 163t195 54t195 -54q82 -54 82 -155q0 -57 -31 -99t-82 -57q58 -16 94 -63t35 -96q0 -123 -85 -177q-85 -55 -207 -55q-121 0 -203 54t-84 170h121q4 -113 171 -113
t167 119q0 44 -41 78t-125 34z" />
    <glyph glyph-name="four.num" horiz-adv-x="729" 
d="M453 965v362l-267 -362h267zM567 1438v-473h86v-107h-86v-153h-114v153h-394l-6 94l355 486h159z" />
    <glyph glyph-name="five.num" horiz-adv-x="739" 
d="M623 1436v-107h-408v-164h154q141 0 219 -63t78 -175t-78 -175q-78 -64 -208 -64t-212 50t-84 167h113q0 -111 175 -111t175 132q0 55 -41 95t-137 40h-269v375h523z" />
    <glyph glyph-name="six.num" horiz-adv-x="765" 
d="M400 1159q120 0 204 -54t84 -175t-86 -178q-86 -58 -207 -58t-208 58t-87 176v289q0 117 83 176t203 59t201 -49t87 -146h-115q-10 91 -177 91t-167 -131v-123q65 65 185 65zM217 926q0 -66 52 -98t125 -31t125 31t52 98t-52 100t-123 33q-71 0 -125 -34q-54 -33 -54 -99
z" />
    <glyph glyph-name="seven.num" horiz-adv-x="643" 
d="M59 1329v107h541l8 -54l-360 -682h-135l338 629h-392z" />
    <glyph glyph-name="eight.num" horiz-adv-x="782" 
d="M219 1247q0 -57 49 -85t123 -28t123 28t49 85q2 57 -52 84q-55 27 -119 27t-118 -27t-55 -84zM84 903q0 66 42 114t107 64q-135 45 -135 157t88 164t205 52t206 -50t89 -163t-135 -160q63 -16 105 -65t42 -113q2 -115 -89 -167t-217 -51t-217 52t-91 166zM207 908
q0 -60 58 -91t126 -31t126 30t58 90t-55 93t-129 33t-129 -32t-55 -92z" />
    <glyph glyph-name="nine.num" horiz-adv-x="765" 
d="M369 991q-121 0 -205 53q-84 52 -84 174t86 179t208 57t208 -58t86 -175v-287q0 -119 -83 -178q-83 -60 -203 -60t-201 49t-87 148h115q10 -92 174 -92q78 0 124 34t46 99v123q-63 -66 -184 -66zM551 1225q0 65 -52 97t-125 32t-125 -31t-52 -99t52 -100t124 -32t125 34
t53 99z" />
    <glyph glyph-name="parenleft.case" horiz-adv-x="702" 
d="M563 1640l72 -100q-183 -131 -283 -344t-103 -455q-3 -241 95 -455t291 -356l-74 -106q-207 133 -322 357q-116 224 -132 498q-16 275 101 541t355 420z" />
    <glyph glyph-name="parenright.case" horiz-adv-x="700" 
d="M66 1544l71 101q238 -154 356 -421q117 -266 101 -540t-132 -498t-323 -358l-71 106q190 142 288 356t96 456t-102 454t-284 344z" />
    <glyph glyph-name="hyphen.case" horiz-adv-x="1034" 
d="M154 616v129h727v-129h-727z" />
    <glyph glyph-name="bracketleft.case" horiz-adv-x="681" 
d="M594 -193h-401v1809h401v-129h-260v-1550h260v-130z" />
    <glyph glyph-name="bracketright.case" horiz-adv-x="681" 
d="M489 -195h-401v132h258v1552h-258v127h401v-1811z" />
    <glyph glyph-name="braceleft.case" horiz-adv-x="671" 
d="M238 449q0 225 -156 225v106q156 0 156 224v280q0 182 79 256q80 74 267 39v-102q-125 20 -169 -22t-44 -175v-276q0 -180 -63 -235q-32 -28 -83 -42q111 -27 135 -143q11 -54 11 -135v-293q0 -131 43 -171t170 -20v-106q-209 -33 -278 47t-68 303v240z" />
    <glyph glyph-name="bar.case" horiz-adv-x="526" 
d="M332 1550v-1700h-137v1700h137z" />
    <glyph glyph-name="braceright.case" horiz-adv-x="673" 
d="M301 156v295q0 146 33 197q36 62 115 81q-105 29 -130 114q-18 66 -18 163v276q0 133 -44 175t-167 22v100q186 35 265 -38t79 -257v-278q0 -223 158 -224v-106q-158 0 -158 -225v-240q0 -223 -68 -303t-276 -47v106q127 -20 169 19t42 170z" />
    <glyph glyph-name="guilsinglleft.case" horiz-adv-x="702" 
d="M555 1157v-8l-279 -442q33 -51 261 -414l18 -37h-145l-285 451l285 450h145z" />
    <glyph glyph-name="guilsinglright.case" horiz-adv-x="702" 
d="M150 1147h145l285 -449l-285 -452h-145l278 452l-278 443v6z" />
    <glyph glyph-name="guillemotleft.case" horiz-adv-x="954" 
d="M809 1130v-8l-279 -442l279 -451h-147l-283 451l283 450h147zM555 1130v-8l-279 -442q33 -51 261 -414l18 -37h-145l-285 451l285 450h145z" />
    <glyph glyph-name="guillemotright.case" horiz-adv-x="956" 
d="M147 1145h148l283 -449l-283 -452h-148l279 452l-279 441v8zM403 1145h146l282 -449l-282 -452h-146l277 452l-277 441v8z" />
    <glyph glyph-name="endash.case" horiz-adv-x="1230" 
d="M152 631v125h927v-125h-927z" />
    <glyph glyph-name="emdash.case" horiz-adv-x="1452" 
d="M156 635v125h1140v-125h-1140z" />
    <glyph glyph-name="bullet.case" horiz-adv-x="790" 
d="M395 483q-92 1 -153 59q-62 58 -62 153t62 153t153 59q91 0 153 -58q62 -59 62 -153t-62 -154t-153 -59z" />
    <glyph glyph-name="periodcentered.case" horiz-adv-x="505" 
d="M154 690q0 61 50 87t99 0t49 -87t-49 -87t-99 0t-50 87z" />
    <glyph glyph-name="a.alt" horiz-adv-x="1138" 
d="M213 309q2 -113 86 -159t211 -48q127 0 232 96t112 232q-152 84 -358 88q-121 0 -203 -48t-80 -161zM510 1026q217 0 348 -92t131 -295v-639h-119l-4 180q-60 -96 -164 -147t-221 -51q-169 0 -287 82t-118 245q0 164 119 247t305 82t354 -89v90q0 258 -344 258
q-155 0 -317 -70l-21 125q184 74 338 74z" />
    <glyph glyph-name="agrave.alt" horiz-adv-x="1138" 
d="M213 309q2 -113 86 -159t211 -48q127 0 232 96t112 232q-152 84 -358 88q-121 0 -203 -48t-80 -161zM510 1026q217 0 348 -92t131 -295v-639h-119l-4 180q-60 -96 -164 -147t-221 -51q-169 0 -287 82t-118 245q0 164 119 247t305 82t354 -89v90q0 258 -344 258
q-155 0 -317 -70l-21 125q184 74 338 74zM348 1438h160l141 -238v-8h-117l-184 242v4z" />
    <glyph glyph-name="aacute.alt" horiz-adv-x="1138" 
d="M213 309q2 -113 86 -159t211 -48q127 0 232 96t112 232q-152 84 -358 88q-121 0 -203 -48t-80 -161zM510 1026q217 0 348 -92t131 -295v-639h-119l-4 180q-60 -96 -164 -147t-221 -51q-169 0 -287 82t-118 245q0 164 119 247t305 82t354 -89v90q0 258 -344 258
q-156 0 -317 -70l-21 125q184 74 338 74zM778 1436v-4l-184 -242h-117v8l141 238h160z" />
    <glyph glyph-name="acircumflex.alt" horiz-adv-x="1138" 
d="M213 309q2 -113 86 -159t211 -48q127 0 232 96t112 232q-152 84 -358 88q-121 0 -203 -48t-80 -161zM510 1026q217 0 348 -92t131 -295v-639h-119l-4 180q-60 -96 -164 -147t-221 -51q-169 0 -287 82t-118 245q0 164 119 247t305 82t354 -89v90q0 258 -344 258
q-156 0 -317 -70l-21 125q184 74 338 74zM872 1174h-133l-182 163l-180 -163h-135v14l270 248h90l270 -248v-14z" />
    <glyph glyph-name="atilde.alt" horiz-adv-x="1138" 
d="M358 1249l-90 37q16 78 70 116t129 23q23 -5 87 -37t106 -29q40 3 61 64l92 -37q-15 -84 -71 -118t-124 -21q-20 5 -56 23q-128 62 -169 33q-23 -17 -35 -54zM213 309q2 -113 86 -159t211 -48q127 0 232 96t112 232q-152 84 -358 88q-121 0 -203 -48t-80 -161zM989 639
v-639h-119l-4 180q-60 -96 -164 -147t-221 -51q-169 0 -287 82t-118 245q0 164 119 247t305 82t354 -89v90q0 258 -344 258q-155 0 -317 -70l-21 125q119 54 257 68t265 -12t211 -122q84 -95 84 -247z" />
    <glyph glyph-name="adieresis.alt" horiz-adv-x="1140" 
d="M690 1350q0 54 45 78t90 0t45 -78t-45 -79q-45 -24 -90 0t-45 79zM266 1350q0 54 45 78t90 0t45 -78t-45 -79q-45 -24 -90 0t-45 79zM219 309q0 -104 86 -155q86 -52 213 -52t227 90t107 234q-154 84 -352 88q-117 0 -199 -50t-82 -155zM514 1026q217 0 347 -92t130 -295
v-639h-123l-4 180q-129 -199 -379 -198q-169 0 -287 82t-118 243q0 162 120 246t303 83t351 -89v92q0 262 -340 262q-170 0 -334 -78l-26 119q198 84 360 84z" />
    <glyph glyph-name="amacron.alt" horiz-adv-x="1140" 
d="M219 309q0 -104 86 -155q86 -52 213 -52t227 90t107 234q-154 84 -352 88q-117 0 -199 -50t-82 -155zM514 1026q217 0 347 -92t130 -295v-639h-123l-4 180q-129 -199 -379 -198q-169 0 -287 82t-118 243q0 162 120 246t303 83t351 -89v92q0 262 -340 262q-170 0 -334 -78
l-26 119q198 84 360 84zM254 1284v113h604v-113h-604z" />
    <glyph glyph-name="abreve.alt" horiz-adv-x="1140" 
d="M723 1438h111q4 -121 -67 -186q-71 -64 -192 -64t-191 66t-65 184h105q0 -150 149 -150q78 0 114 44t36 106zM219 309q0 -104 86 -155q86 -52 213 -52t227 90t107 234q-154 84 -352 88q-117 0 -199 -50t-82 -155zM514 1026q217 0 347 -92t130 -295v-639h-123l-4 180
q-129 -199 -379 -198q-169 0 -287 82t-118 243q0 162 120 246t303 83t351 -89v92q0 262 -340 262q-170 0 -334 -78l-26 119q198 84 360 84z" />
    <glyph glyph-name="aring.alt" horiz-adv-x="1140" 
d="M219 309q0 -104 86 -155q86 -52 213 -52t227 90t107 234q-154 84 -352 88q-117 0 -199 -50t-82 -155zM514 1026q217 0 347 -92t130 -295v-639h-123l-4 180q-129 -199 -379 -198q-169 0 -287 82t-118 243q0 162 120 246t303 83t351 -89v92q0 262 -340 262q-170 0 -334 -78
l-26 119q198 84 360 84zM566 1436q-72 0 -102 -50t0 -102q30 -51 102 -51t104 51q31 52 0 102t-104 50zM350 1333q0 88 65 137q65 50 153 50t153 -50t65 -137q0 -88 -62 -137t-158 -49t-156 49t-60 137z" />
    <glyph glyph-name="aringacute.alt" horiz-adv-x="1140" 
d="M219 309q0 -104 86 -155q86 -52 213 -52t227 90t107 234q-154 84 -352 88q-117 0 -199 -50t-82 -155zM514 1026q217 0 347 -92t130 -295v-639h-123l-4 180q-129 -199 -379 -198q-169 0 -287 82t-118 243q0 162 120 246t303 83t351 -89v92q0 262 -340 262q-170 0 -334 -78
l-26 119q198 84 360 84zM809 1704v-2l-180 -186h-115v6l148 182h147zM579 1194q69 0 97 46t0 93t-97 47t-96 -47t0 -93t96 -46zM377 1286q0 82 59 127q60 45 144 45t144 -45t60 -126t-59 -128t-147 -47t-145 46q-56 46 -56 128z" />
    <glyph glyph-name="aogonek.alt" horiz-adv-x="1140" 
d="M219 309q0 -104 86 -155q86 -52 213 -52t227 90t107 234q-154 84 -352 88q-117 0 -199 -50t-82 -155zM514 1026q217 0 347 -92t130 -295v-717q-93 10 -157 -22t-67 -78q-3 -47 34 -78t100 -27q98 4 156 88l76 -51q-71 -138 -257 -140q-88 -1 -150 47q-60 48 -64 120
q-6 72 44 134t162 79l-4 186q-129 -199 -379 -198q-169 0 -287 82t-118 243q0 162 120 246t303 83t351 -89v92q0 262 -340 262q-170 0 -334 -78l-26 119q198 84 360 84z" />
    <glyph glyph-name="y.alt" horiz-adv-x="1241" 
d="M145 1012h138v-568q0 -158 89 -244t237 -86q148 1 242 100q93 99 93 247v551h137v-1047q0 -239 -129 -363t-336 -124q-206 0 -322 97t-128 271h133q27 -240 317 -239q147 0 241 89q93 89 93 269v205q-111 -182 -358 -186q-201 0 -324 122t-123 336v570z" />
    <glyph glyph-name="yacute.alt" horiz-adv-x="1241" 
d="M834 1440v-4l-189 -252h-113v8l146 248h156zM283 1012v-568q0 -158 89 -244t237 -86q148 1 242 100q93 99 93 247v551h137v-1047q0 -239 -129 -363t-336 -124q-206 0 -322 97t-128 271h133q27 -240 317 -239q147 0 241 89q93 89 93 269v205q-111 -182 -358 -186
q-201 0 -324 122t-123 336v570h138z" />
    <glyph glyph-name="ycircumflex.alt" horiz-adv-x="1241" 
d="M956 1180h-137l-184 168l-186 -168h-138v12l279 258h90l276 -258v-12zM283 1012v-568q0 -158 89 -244t237 -86q148 1 242 100q93 99 93 247v551h137v-1047q0 -239 -129 -363t-336 -124q-206 0 -322 97t-128 271h133q27 -240 317 -239q147 0 241 89q93 89 93 269v205
q-111 -182 -358 -186q-201 0 -324 122t-123 336v570h138z" />
    <glyph glyph-name="ydieresis.alt" horiz-adv-x="1241" 
d="M764 1351q0 58 47 83t94 0t47 -83t-47 -82t-94 0t-47 82zM324 1344q0 52 28 76t65 24t65 -25t28 -75t-46 -75q-46 -24 -93 0t-47 75zM283 1012v-568q0 -158 89 -244t237 -86q148 1 242 100q93 99 93 247v551h137v-1047q0 -239 -129 -363t-336 -124q-206 0 -322 97
t-128 271h133q27 -240 317 -239q147 0 241 89q93 89 93 269v205q-111 -182 -358 -186q-201 0 -324 122t-123 336v570h138z" />
    <glyph glyph-name="ygrave.alt" horiz-adv-x="1241" 
d="M416 1436h159l132 -244v-8h-115l-176 248v4zM145 1012h138v-568q0 -158 89 -244t237 -86q148 1 242 100q93 99 93 247v551h137v-1047q0 -239 -129 -363t-336 -124q-206 0 -322 97t-128 271h133q27 -240 317 -239q147 0 241 89q93 89 93 269v205q-111 -182 -358 -186
q-201 0 -324 122t-123 336v570z" />
    <glyph glyph-name="asterisk.alt" horiz-adv-x="634" 
d="M290 1456q58 0 58 -45l-8 -141l135 49q31 9 51 -13t14 -52t-36 -35l-135 -39l96 -119q25 -29 9 -59t-46 -31q-31 -1 -51 28l-86 125l-86 -125q-23 -43 -68 -22q-43 18 -35 59q4 12 15 25l96 119l-135 39q-31 5 -37 35t14 53t51 12l136 -49l-9 141q-1 45 57 45z" />
    </font>
</defs>
</svg>
